<?xml version="1.0" encoding="utf-8"?>
<svg x="0pt" y="0pt" width="32pt" height="32pt" viewBox="0 0 32 32" xmlns="http://www.w3.org/2000/svg" xmlns:xlink="http://www.w3.org/1999/xlink">
  <g id="1">
    <title>Layer 2</title>
    <defs>
      <title>Compound Group</title>
      <g id="2">
        <defs>
          <path id="3" d="M2.93925,7.51302 C2.93925,7.51302,16.3164,15.1459,16.3164,15.1459 C16.3164,15.1459,29.6998,7.51302,29.6998,7.51302 C29.6998,7.51302,16.3195,0,16.3195,0 C16.3195,0,2.93925,7.51302,2.93925,7.51302 z M30.62,9.19551 C30.62,9.19551,17.272,16.7037,17.272,16.7037 C17.272,16.7037,17.272,32,17.272,32 C17.272,32,30.62,24.2815,30.62,24.2815 C30.62,24.2815,30.62,9.19551,30.62,9.19551 z M2,9.1955 C2,9.1955,15.348,16.7037,15.348,16.7037 C15.348,16.7037,15.348,32,15.348,32 C15.348,32,2,24.2815,2,24.2815 C2,24.2815,2,9.1955,2,9.1955 z"/>
        </defs>
        <use xlink:href="#3" style="fill:#787878;fill-opacity:1;fill-rule:evenodd;opacity:1;stroke:none;"/>
      </g>
    </defs>
    <use xlink:href="#2"/>
  </g>
</svg>
