<?xml version="1.0" encoding="utf-8"?>
<svg x="0pt" y="0pt" width="142pt" height="61pt" viewBox="0 0 142 61" xmlns="http://www.w3.org/2000/svg" xmlns:xlink="http://www.w3.org/1999/xlink">
  <g id="1">
    <title>Layer 1</title>
    <g id="2">
      <title>Group</title>
      <g id="3">
        <title>Group</title>
        <defs>
          <title>Shape 1</title>
          <g id="4">
            <defs>
              <path id="5" d="M33.125,59.49 C31.798,59.49,30.471,59.49,29.144,59.49 C28.608,59.467,28.143,59.263,27.748,58.881 C27.352,58.496,27.154,58.036,27.154,57.501 C27.154,56.9883,27.154,56.4757,27.154,55.963 C24.033,58.966,20.53,60.468,16.642,60.468 C11.985,60.468,8.132,58.77,5.081,55.369 C2.031,51.853,0.505997,47.512,0.505997,42.343 C0.505997,37.315,2.031,33.076,5.081,29.631 C8.085,26.21,11.879,24.497,16.467,24.497 C20.448,24.497,24.01,26.127,27.154,29.387 C27.154,29.387,27.154,4.59,27.154,4.59 C27.154,4.59,27.154,4.45,27.154,4.45 C27.154,3.892,27.259,3.374,27.468,2.896 C27.678,2.419,27.962,2,28.323,1.639 C28.684,1.279,29.103,0.993,29.58,0.784 C30.057,0.574,30.576,0.469,31.135,0.469 C31.671,0.469,32.183,0.574,32.672,0.784 C33.16,0.993,33.585,1.279,33.946,1.639 C34.307,2,34.592,2.419,34.801,2.896 C35.01,3.375,35.115,3.892,35.115,4.45 C35.115,22.192,35.115,39.934,35.115,57.676 C35.068,58.188,34.853,58.618,34.469,58.967 C34.085,59.316,33.637,59.49,33.125,59.49 z M6.76,42.378 C6.76,45.639,7.633,48.293,9.379,50.341 C11.171,52.414,13.431,53.449,16.154,53.449 C19.064,53.449,21.416,52.448,23.209,50.445 C25.001,48.374,25.898,45.743,25.898,42.551 C25.898,39.361,25.001,36.73,23.209,34.658 C21.416,32.632,19.087,31.62,16.224,31.62 C13.522,31.62,11.264,32.643,9.449,34.692 C7.656,36.768,6.76,39.328,6.76,42.378 z"/>
            </defs>
            <use xlink:href="#5" style="fill:#ffffff;fill-opacity:1;fill-rule:evenodd;opacity:1;stroke:none;"/>
          </g>
        </defs>
        <use xlink:href="#4"/>
        <defs>
          <title>Shape 2</title>
          <g id="6">
            <defs>
              <path id="7" d="M69.485,55.614 C69.485,56.173,69.38,56.691,69.171,57.169 C68.962,57.648,68.683,58.066,68.333,58.428 C67.983,58.788,67.564,59.074,67.075,59.282 C66.586,59.491,66.062,59.595,65.504,59.595 C64.409,59.595,63.49,59.222,62.745,58.478 C62.6753,58.4077,62.6057,58.3373,62.536,58.267 C62.489,58.198,62.431,58.121,62.361,58.039 C62.291,57.957,62.232,57.882,62.186,57.811 C58.8913,53.597,55.5967,49.383,52.302,45.169 C51.883,45.5887,51.464,46.0083,51.045,46.428 C51.045,49.4543,51.045,52.4807,51.045,55.507 C51.045,55.53,51.032,55.553,51.01,55.576 C51.01,55.5877,51.01,55.5993,51.01,55.611 C51.01,56.146,50.91,56.654,50.713,57.131 C50.515,57.608,50.242,58.022,49.892,58.37 C49.543,58.721,49.129,59,48.653,59.209 C48.174,59.419,47.657,59.521,47.098,59.521 C46.562,59.521,46.061,59.422,45.597,59.226 C45.131,59.029,44.723,58.761,44.375,58.423 C44.026,58.084,43.746,57.689,43.537,57.234 C43.327,56.782,43.21,56.286,43.187,55.751 C43.187,55.6813,43.187,55.6117,43.187,55.542 C43.187,55.542,43.187,4.485,43.187,4.485 C43.175,4.462,43.163,4.439,43.151,4.416 C43.151,3.857,43.256,3.339,43.465,2.862 C43.674,2.385,43.954,1.971,44.303,1.622 C44.653,1.273,45.065,0.993,45.543,0.784 C46.021,0.574,46.539,0.47,47.097,0.47 C47.632,0.47,48.139,0.574,48.616,0.784 C49.094,0.993,49.507,1.273,49.856,1.622 C50.206,1.971,50.485,2.385,50.694,2.862 C50.904,3.339,51.008,3.858,51.008,4.416 C51.0197,4.416,51.0313,4.416,51.043,4.416 C51.043,15.103,51.043,25.79,51.043,36.477 C54.3843,33.159,57.7257,29.841,61.067,26.523 C61.067,26.5347,61.067,26.5463,61.067,26.558 C61.742,25.836,62.603,25.475,63.65,25.475 C64.697,25.475,65.571,25.824,66.27,26.523 C66.968,27.222,67.318,28.094,67.318,29.142 C67.318,29.608,67.23,30.056,67.056,30.487 C66.881,30.918,66.643,31.297,66.341,31.623 C66.3177,31.6457,66.2943,31.6683,66.271,31.691 C66.271,31.714,66.259,31.726,66.236,31.726 C63.4537,34.4147,60.6713,37.1033,57.889,39.792 C61.3937,44.158,64.8983,48.524,68.403,52.89 C69.125,53.658,69.485,54.566,69.485,55.614 z"/>
            </defs>
            <use xlink:href="#7" style="fill:#ffffff;fill-opacity:1;fill-rule:evenodd;opacity:1;stroke:none;"/>
          </g>
        </defs>
        <use xlink:href="#6"/>
        <g id="8">
          <title>Group</title>
          <defs>
            <title>Shape 3</title>
            <g id="9">
              <defs>
                <path id="10" d="M99.254,59.49 C98.718,59.49,98.264,59.323,97.893,58.984 C97.52,58.646,97.311,58.211,97.264,57.673 C97.264,57.0907,97.264,56.5083,97.264,55.926 C94.026,58.954,90.569,60.466,86.891,60.466 C82.188,60.466,78.311,58.769,75.26,55.367 C72.188,51.923,70.65,47.604,70.65,42.411 C70.65,37.311,72.188,33.063,75.26,29.663 C78.264,26.264,82.071,24.564,86.68,24.564 C90.592,24.564,94.119,26.194,97.262,29.454 C97.262,28.92,97.367,28.412,97.576,27.935 C97.785,27.458,98.064,27.039,98.414,26.678 C98.764,26.317,99.176,26.032,99.654,25.822 C100.131,25.613,100.636,25.509,101.173,25.509 C101.733,25.509,102.256,25.613,102.744,25.822 C103.232,26.032,103.658,26.317,104.017,26.678 C104.378,27.039,104.664,27.458,104.873,27.935 C105.083,28.413,105.186,28.92,105.186,29.454 C105.186,29.501,105.18,29.537,105.168,29.559 C105.157,29.582,105.15,29.606,105.15,29.628 C105.162,29.628,105.173,29.628,105.185,29.628 C105.173,38.9293,105.162,48.2307,105.15,57.532 C105.15,58.067,104.958,58.528,104.574,58.912 C104.189,59.296,103.719,59.488,103.159,59.488 C103.159,59.488,99.254,59.49,99.254,59.49 C99.254,59.49,99.254,59.49,99.254,59.49 z M95.133,50.447 C96.925,48.329,97.822,45.71,97.822,42.588 C97.822,39.422,96.925,36.803,95.133,34.731 C93.34,32.705,90.999,31.692,88.113,31.692 C85.459,31.692,83.224,32.705,81.407,34.731 C79.592,36.827,78.681,39.389,78.681,42.416 C78.681,45.629,79.566,48.259,81.335,50.308 C83.151,52.404,85.397,53.453,88.076,53.453 C90.964,53.449,93.316,52.448,95.133,50.447 z"/>
              </defs>
              <use xlink:href="#10" style="fill:#ffffff;fill-opacity:1;fill-rule:evenodd;opacity:1;stroke:none;"/>
            </g>
          </defs>
          <use xlink:href="#9"/>
        </g>
        <defs>
          <title>Shape 4</title>
          <g id="11">
            <defs>
              <path id="12" d="M141.589,55.51 C141.589,55.557,141.583,55.61,141.572,55.667 C141.56,55.727,141.554,55.777,141.554,55.825 C141.532,56.359,141.408,56.853,141.187,57.308 C140.964,57.761,140.674,58.158,140.314,58.496 C139.953,58.834,139.54,59.101,139.075,59.299 C138.609,59.497,138.107,59.598,137.573,59.598 C137.013,59.598,136.496,59.493,136.017,59.284 C135.539,59.074,135.121,58.79,134.761,58.43 C134.4,58.069,134.115,57.649,133.906,57.17 C133.695,56.693,133.593,56.174,133.593,55.615 C133.593,55.406,133.606,55.244,133.627,55.128 C133.627,50.2847,133.627,45.4413,133.627,40.598 C133.627,37.223,133.161,34.893,132.231,33.612 C131.278,32.286,129.614,31.623,127.237,31.623 C124.584,31.623,122.719,32.496,121.649,34.242 C120.553,35.942,120.006,38.922,120.006,43.182 C120.006,47,120.006,50.818,120.006,54.636 C120.053,54.799,120.076,54.946,120.076,55.074 C120.076,55.202,120.076,55.358,120.076,55.546 C120.076,56.105,119.971,56.635,119.762,57.136 C119.553,57.637,119.274,58.074,118.924,58.447 C118.576,58.818,118.156,59.116,117.668,59.338 C117.178,59.559,116.654,59.669,116.096,59.669 C115.538,59.669,115.007,59.565,114.507,59.356 C114.006,59.145,113.569,58.856,113.195,58.483 C112.823,58.11,112.533,57.68,112.323,57.19 C112.113,56.702,112.009,56.176,112.009,55.619 C112.009,55.362,112.022,55.178,112.044,55.061 C112.044,55.061,112.044,29.491,112.044,29.491 C112.044,28.932,112.148,28.408,112.357,27.92 C112.568,27.432,112.857,27,113.23,26.628 C113.603,26.256,114.035,25.964,114.523,25.754 C115.013,25.545,115.537,25.44,116.095,25.44 C116.56,25.44,117.008,25.522,117.441,25.685 C117.872,25.848,118.261,26.068,118.611,26.349 C118.961,26.628,119.257,26.966,119.5,27.362 C119.746,27.758,119.915,28.177,120.007,28.618 C122.778,25.871,125.909,24.498,129.403,24.498 C133.384,24.498,136.481,25.755,138.692,28.269 C140.627,30.364,141.591,33.834,141.591,38.676 C141.591,38.676,141.591,55.51,141.591,55.51 C141.591,55.51,141.589,55.51,141.589,55.51 z"/>
            </defs>
            <use xlink:href="#12" style="fill:#ffffff;fill-opacity:1;fill-rule:evenodd;opacity:1;stroke:none;"/>
          </g>
        </defs>
        <use xlink:href="#11"/>
      </g>
    </g>
  </g>
</svg>
