<?xml version="1.0" encoding="utf-8"?>
<!-- Generator: Adobe Illustrator 16.0.0, SVG Export Plug-In . SVG Version: 6.00 Build 0)  -->
<!DOCTYPE svg PUBLIC "-//W3C//DTD SVG 1.1//EN" "http://www.w3.org/Graphics/SVG/1.1/DTD/svg11.dtd">
<svg version="1.1" id="Layer_1" xmlns="http://www.w3.org/2000/svg" xmlns:xlink="http://www.w3.org/1999/xlink" x="0px" y="0px"
	 width="142px" height="61px" viewBox="0 0 142 61" enable-background="new 0 0 142 61" xml:space="preserve">
<g>
	<path fill="#0C76BC" d="M33.125,59.49h-3.981c-0.536-0.023-1.001-0.227-1.396-0.609c-0.396-0.385-0.594-0.845-0.594-1.38v-1.538
		c-3.121,3.003-6.624,4.505-10.512,4.505c-4.657,0-8.51-1.698-11.561-5.099c-3.05-3.515-4.575-7.857-4.575-13.026
		c0-5.029,1.525-9.267,4.575-12.712c3.004-3.421,6.798-5.134,11.386-5.134c3.981,0,7.543,1.63,10.687,4.89V4.59V4.45
		c0-0.558,0.105-1.076,0.314-1.554c0.21-0.477,0.494-0.896,0.855-1.257c0.361-0.36,0.78-0.646,1.257-0.855
		c0.477-0.21,0.996-0.315,1.555-0.315c0.536,0,1.048,0.105,1.537,0.315c0.488,0.209,0.913,0.495,1.274,0.855
		c0.361,0.361,0.646,0.78,0.855,1.257c0.209,0.479,0.314,0.996,0.314,1.554v53.226c-0.047,0.511-0.262,0.942-0.646,1.291
		C34.085,59.316,33.637,59.49,33.125,59.49z M6.76,42.378c0,3.26,0.873,5.915,2.619,7.963c1.792,2.073,4.052,3.108,6.775,3.108
		c2.91,0,5.262-1.001,7.055-3.003c1.792-2.072,2.689-4.703,2.689-7.894c0-3.19-0.897-5.821-2.689-7.893
		c-1.793-2.026-4.122-3.038-6.985-3.038c-2.702,0-4.96,1.024-6.775,3.073C7.656,36.768,6.76,39.328,6.76,42.378z"/>
	<path fill="#0C76BC" d="M69.485,55.614c0,0.559-0.105,1.078-0.314,1.555c-0.209,0.479-0.488,0.897-0.838,1.259
		c-0.35,0.36-0.769,0.645-1.258,0.854c-0.489,0.209-1.013,0.314-1.571,0.314c-1.095,0-2.014-0.373-2.759-1.118l-0.209-0.21
		c-0.047-0.07-0.105-0.146-0.175-0.228s-0.129-0.157-0.175-0.228l-9.884-12.641l-1.257,1.258v9.08c0,0.023-0.013,0.046-0.035,0.069
		v0.035c0,0.536-0.1,1.043-0.297,1.52c-0.198,0.477-0.471,0.89-0.821,1.239c-0.349,0.35-0.763,0.63-1.239,0.839
		c-0.479,0.21-0.996,0.313-1.555,0.313c-0.536,0-1.037-0.099-1.501-0.296c-0.466-0.197-0.874-0.465-1.222-0.802
		c-0.349-0.339-0.629-0.734-0.838-1.189c-0.21-0.453-0.327-0.949-0.35-1.484v-0.209V4.485l-0.036-0.069
		c0-0.559,0.105-1.077,0.314-1.554s0.489-0.891,0.838-1.24c0.35-0.349,0.762-0.629,1.24-0.838c0.478-0.21,0.996-0.314,1.554-0.314
		c0.535,0,1.042,0.104,1.519,0.314c0.478,0.209,0.891,0.489,1.24,0.838c0.35,0.349,0.629,0.763,0.838,1.24
		c0.21,0.477,0.314,0.996,0.314,1.554h0.035v32.061l10.024-9.954v0.035c0.675-0.722,1.536-1.083,2.583-1.083s1.921,0.349,2.62,1.048
		c0.698,0.699,1.048,1.571,1.048,2.619c0,0.466-0.088,0.914-0.262,1.345c-0.175,0.431-0.413,0.81-0.715,1.136l-0.07,0.069
		c0,0.023-0.012,0.035-0.035,0.035l-8.347,8.066L68.403,52.89C69.125,53.658,69.485,54.567,69.485,55.614z"/>
	<g>
		<path fill="#0C76BC" d="M99.254,59.49c-0.536,0-0.99-0.167-1.362-0.506c-0.373-0.338-0.582-0.773-0.629-1.31v-1.747
			c-3.237,3.028-6.694,4.54-10.373,4.54c-4.703,0-8.58-1.698-11.63-5.099c-3.073-3.444-4.61-7.763-4.61-12.956
			c0-5.1,1.537-9.347,4.61-12.748c3.003-3.399,6.81-5.099,11.42-5.099c3.912,0,7.439,1.63,10.582,4.89
			c0-0.534,0.105-1.042,0.314-1.519c0.209-0.477,0.489-0.896,0.838-1.257c0.349-0.361,0.762-0.646,1.24-0.856
			c0.477-0.209,0.983-0.313,1.519-0.313c0.559,0,1.083,0.104,1.571,0.313c0.489,0.21,0.914,0.495,1.274,0.856
			c0.361,0.361,0.647,0.78,0.856,1.257c0.21,0.478,0.314,0.985,0.314,1.519c0,0.047-0.006,0.083-0.018,0.105
			c-0.011,0.023-0.017,0.047-0.017,0.069h0.034l-0.034,27.904c0,0.536-0.193,0.996-0.577,1.38c-0.385,0.384-0.855,0.576-1.415,0.576
			L99.254,59.49L99.254,59.49z M95.133,50.447c1.792-2.118,2.689-4.737,2.689-7.859c0-3.166-0.897-5.785-2.689-7.858
			c-1.793-2.026-4.134-3.038-7.02-3.038c-2.654,0-4.889,1.012-6.706,3.038c-1.815,2.096-2.725,4.658-2.725,7.685
			c0,3.213,0.885,5.843,2.654,7.892c1.816,2.096,4.062,3.144,6.741,3.144C90.964,53.449,93.316,52.448,95.133,50.447z"/>
	</g>
	<path fill="#0C76BC" d="M141.589,55.51c0,0.046-0.006,0.1-0.017,0.157c-0.012,0.059-0.018,0.11-0.018,0.158
		c-0.022,0.535-0.146,1.029-0.367,1.484c-0.222,0.453-0.512,0.849-0.872,1.187c-0.362,0.338-0.775,0.605-1.24,0.803
		c-0.466,0.198-0.967,0.298-1.502,0.298c-0.559,0-1.077-0.105-1.555-0.314c-0.478-0.21-0.896-0.494-1.257-0.854
		c-0.361-0.361-0.646-0.78-0.855-1.259c-0.21-0.477-0.313-0.996-0.313-1.555c0-0.209,0.012-0.371,0.034-0.487V40.598
		c0-3.376-0.466-5.705-1.396-6.986c-0.954-1.327-2.618-1.99-4.994-1.99c-2.654,0-4.518,0.873-5.589,2.619
		c-1.095,1.7-1.642,4.68-1.642,8.941v11.454c0.047,0.163,0.07,0.309,0.07,0.437s0,0.285,0,0.472c0,0.559-0.105,1.089-0.314,1.59
		s-0.489,0.938-0.838,1.31c-0.348,0.372-0.768,0.669-1.256,0.891c-0.49,0.22-1.014,0.331-1.572,0.331
		c-0.559,0-1.089-0.104-1.589-0.314c-0.501-0.21-0.938-0.5-1.311-0.872c-0.373-0.373-0.663-0.803-0.873-1.293
		c-0.21-0.489-0.314-1.014-0.314-1.572c0-0.256,0.013-0.441,0.035-0.558V29.491c0-0.559,0.104-1.083,0.314-1.571
		s0.5-0.92,0.873-1.292c0.373-0.372,0.804-0.664,1.293-0.874c0.489-0.209,1.013-0.314,1.572-0.314c0.465,0,0.913,0.082,1.345,0.245
		c0.431,0.163,0.82,0.383,1.17,0.664c0.35,0.279,0.646,0.617,0.889,1.013c0.246,0.396,0.415,0.815,0.507,1.256
		c2.771-2.747,5.902-4.12,9.395-4.12c3.982,0,7.078,1.257,9.29,3.771c1.934,2.095,2.899,5.565,2.899,10.407V55.51H141.589z"/>
</g>
</svg>
