<?xml version="1.0" encoding="utf-8"?>
<!-- Generator: Adobe Illustrator 19.1.0, SVG Export Plug-In . SVG Version: 6.00 Build 0)  -->
<svg version="1.1" id="Layer_1" xmlns="http://www.w3.org/2000/svg" xmlns:xlink="http://www.w3.org/1999/xlink" x="0px" y="0px"
	 viewBox="-281 373 48 48" style="enable-background:new -281 373 48 48;" xml:space="preserve">
<style type="text/css">
	.st0{fill:none;stroke:#000000;stroke-width:2;stroke-linecap:round;stroke-miterlimit:10;}
	.st1{fill:none;stroke:#000000;stroke-width:2;stroke-linecap:round;stroke-linejoin:round;stroke-miterlimit:10;}
</style>
<g>
	<path class="st0" d="M-236.2,398.8c0,3.8-3.1,7-7,7h-27.7c-3.8,0-7-3.1-7-7V381c0-3.8,3.1-7,7-7h27.7c3.8,0,7,3.1,7,7L-236.2,398.8
		L-236.2,398.8z"/>
	<line class="st0" x1="-257" y1="405.8" x2="-257" y2="420"/>
	<line class="st0" x1="-257.1" y1="408.5" x2="-265.7" y2="417.9"/>
	<line class="st0" x1="-257" y1="408.5" x2="-248.4" y2="417.9"/>
	<polygon class="st1" points="-242.6,379 -247.4,384.3 -252.3,379 -261.9,389.9 -267.3,383.1 -274.6,390.7 -272.4,393.3 
		-268.1,389.1 -261.7,396.7 -252.1,385.7 -247.1,391.8 -239.4,382.5 	"/>
	<line class="st0" x1="-277.8" y1="399.9" x2="-236.2" y2="399.9"/>
</g>
</svg>
