<?xml version="1.0" encoding="utf-8"?>
<!-- Generator: Adobe Illustrator 19.1.0, SVG Export Plug-In . SVG Version: 6.00 Build 0)  -->
<svg version="1.1" id="Layer_1" xmlns="http://www.w3.org/2000/svg" xmlns:xlink="http://www.w3.org/1999/xlink" x="0px" y="0px"
	 viewBox="-255 347 100 100" style="enable-background:new -255 347 100 100;" xml:space="preserve">
<g>
	<path d="M-215,392.2L-215,392.2c0.1,0,0.1,0,0.1,0.1c0,0,0,0,0.1,0l0.2,0.1l0,0c0,0,0,0,0,0l0,0c0,0,0,0,0,0c0,0,0,0,0,0
		c0,0,0,0,0.1,0l0.2,0.1c0,0,0,0,0,0c0,0,0,0,0.1,0c0,0,0,0,0,0l0.1,0.1c0,0,0,0,0,0c0,0,0,0,0,0c0,0,0,0,0.1,0l0.1,0c0,0,0,0,0,0
		l0.1,0.1c0,0,0,0,0.1,0c0,0,0,0,0,0l0.2,0.1c0,0,0,0,0.1,0c0,0,0,0,0,0l0.1,0.1c0,0,0,0,0,0c0,0,0,0,0,0c0,0,0,0,0.1,0l0.1,0.1
		c0,0,0,0,0,0l0.1,0.1c0,0,0,0,0.1,0c0,0,0,0,0.1,0l0.2,0.1c0,0,0,0,0.1,0c0,0,0,0,0,0l0.1,0.1c0,0,0,0,0.1,0c0,0,0,0,0.1,0l0.1,0.1
		c0,0,0,0,0,0l0.1,0.1c0,0,0,0,0.1,0c0,0,0,0,0.1,0l0.2,0.1c0,0,0,0,0.1,0c0,0,0,0,0,0l0.1,0.1c0,0,0,0,0,0c0,0,0,0,0,0
		c0,0,0,0,0.1,0l0.1,0.1c0,0,0,0,0,0l0.1,0l0,0c0,0,0,0,0,0l0,0c0,0,0,0,0.1,0c0,0,0,0,0.1,0l0.2,0.1c0,0,0,0,0.1,0c0,0,0,0,0.1,0
		l0.1,0.1c0,0,0,0,0,0c0,0,0,0,0,0c0,0,0,0,0.1,0l0.1,0.1c0,0,0,0,0,0l0.1,0l0,0c0,0,0,0,0,0h0c0,0,0,0,0,0c0,0,0,0,0,0
		c0,0,0,0,0.1,0l0.2,0.1c0,0,0,0,0.1,0c0,0,0,0,0.1,0l0.1,0.1c0,0,0,0,0,0c0,0,0,0,0,0c0,0,0,0,0.1,0l0.1,0c0,0,0,0,0,0l0.1,0.1
		c0,0,0,0,0.1,0c0,0,0,0,0.1,0l0.1,0l0,0c0,0,0,0,0,0l0.1,0.1c0,0,0,0,0.1,0c0,0,0,0,0.1,0l0.1,0.1c0,0,0,0,0.1,0c0,0,0,0,0,0
		l0.1,0.1c0,0,0,0,0,0l0.1,0l0,0c0,0,0,0,0.1,0c0,0,0,0,0,0l0.1,0.1c0,0,0,0,0,0l0.1,0.1c0,0,0,0,0.1,0c0,0,0,0,0.1,0l0.1,0.1
		c0,0,0,0,0,0c0,0,0,0,0,0v0.1c0,0,0,0.1,0,0.1c0,0,0,0.1,0,0.1v0.1c0,0,0,0,0,0.1c0,0,0,0,0,0.1v0.2c0,0,0,0,0,0.1c0,0,0,0,0,0.1
		v0.1c0,0,0,0.1,0,0.1c0,0,0,0.1,0,0.1v0.1c0,0,0,0,0,0.1s0,0,0,0.1v0.2c0,0,0,0,0,0.1c0,0,0,0,0,0.1v0.1c0,0,0,0.1,0,0.1
		c0,0,0,0.1,0,0.1v0.1c0,0,0,0,0,0.1c0,0,0,0,0,0.1v0.2c0,0,0,0,0,0.1c0,0,0,0,0,0.1v0.1c0,0,0,0.1,0,0.1c0,0,0,0.1,0,0.1v0.1
		c0,0,0,0,0,0.1c0,0,0,0,0,0.1v0.2c0,0,0,0,0,0.1c0,0,0,0,0,0.1v0.1c0,0,0,0.1,0,0.1c0,0,0,0.1,0,0.1v0.1c0,0,0,0,0,0.1
		c0,0,0,0,0,0.1v0.2c0,0,0,0,0,0.1c0,0,0,0,0,0.1v0.1c0,0,0,0.1,0,0.1c0,0,0,0.1,0,0.1v0.1c0,0,0,0,0,0.1c0,0,0,0,0,0.1v0.2
		c0,0,0,0,0,0.1s0,0,0,0.1v0.1c0,0,0,0.1,0,0.1c0,0,0,0.1,0,0.1v0.1c0,0,0,0,0,0.1c0,0,0,0,0,0.1v0.2c0,0,0,0,0,0.1c0,0,0,0,0,0.1
		v0.1c0,0,0,0.1,0,0.1c0,0,0,0.1,0,0.1v0.1c0,0,0,0,0,0.1c0,0,0,0,0,0.1v0.2c0,0,0,0,0,0.1c0,0,0,0,0,0.1v0.1c0,1.7,1.4,3,3,3
		s3-1.4,3-3v-0.1c0,0,0,0,0-0.1c0,0,0,0,0-0.1v-0.2c0,0,0,0,0-0.1c0,0,0,0,0-0.1v-0.1c0,0,0-0.1,0-0.1c0,0,0-0.1,0-0.1v-0.1
		c0,0,0,0,0-0.1c0,0,0,0,0-0.1v-0.2c0,0,0,0,0-0.1c0,0,0,0,0-0.1v-0.1c0,0,0-0.1,0-0.1c0,0,0-0.1,0-0.1v-0.1c0,0,0,0,0-0.1
		c0,0,0,0,0-0.1v-0.2c0,0,0,0,0-0.1c0,0,0,0,0-0.1v-0.1c0,0,0-0.1,0-0.1c0,0,0-0.1,0-0.1v-0.1c0,0,0,0,0-0.1c0,0,0,0,0-0.1v-0.2
		c0,0,0,0,0-0.1c0,0,0,0,0-0.1v-0.1c0,0,0-0.1,0-0.1c0,0,0-0.1,0-0.1v-0.1c0,0,0,0,0-0.1c0,0,0,0,0-0.1v-0.2c0,0,0,0,0-0.1
		c0,0,0,0,0-0.1V399c0,0,0-0.1,0-0.1c0,0,0-0.1,0-0.1v-0.1c0,0,0,0,0-0.1c0,0,0,0,0-0.1v-0.2c0,0,0,0,0-0.1c0,0,0,0,0-0.1V398
		c0,0,0-0.1,0-0.1c0,0,0-0.1,0-0.1v-0.1c0,0,0,0,0-0.1c0,0,0,0,0-0.1v-0.2c0,0,0,0,0-0.1c0,0,0,0,0-0.1V397c0,0,0-0.1,0-0.1
		c0,0,0-0.1,0-0.1v-0.1c0,0,0,0,0-0.1c0,0,0,0,0-0.1v-0.2c0,0,0,0,0-0.1c0,0,0,0,0-0.1v-0.1c0,0,0-0.1,0-0.1c0,0,0-0.1,0-0.1v-0.1
		c0,0,0,0,0-0.1c0,0,0,0,0,0c0,0,0.1,0,0.1,0l0.1-0.1c0,0,0,0,0.1,0c0,0,0,0,0.1,0l0.2-0.1c0,0,0,0,0.1,0c0,0,0,0,0,0l0.1-0.1
		c0,0,0.1,0,0.1-0.1c0,0,0.1,0,0.1-0.1l0.1-0.1c0,0,0,0,0.1,0c0,0,0,0,0.1,0l0.2-0.1c0,0,0,0,0.1,0c0,0,0,0,0.1,0l0.1-0.1
		c0,0,0.1,0,0.1-0.1c0,0,0.1,0,0.1-0.1l0.1-0.1c0,0,0,0,0.1,0c0,0,0,0,0.1,0l0.2-0.1c0,0,0,0,0.1,0c0,0,0,0,0.1,0l0.1-0.1
		c0,0,0.1,0,0.1-0.1c0,0,0.1,0,0.1-0.1l0.1-0.1c0,0,0,0,0.1,0c0,0,0,0,0.1,0l0.2-0.1c0,0,0,0,0.1,0c0,0,0,0,0.1,0l0.1-0.1
		c0,0,0.1,0,0.1-0.1c0,0,0.1,0,0.1-0.1l0.1-0.1c0,0,0,0,0.1,0c0,0,0,0,0.1,0l0.2-0.1c0,0,0,0,0.1,0c0,0,0,0,0,0l0.1-0.1
		c0,0,0.1,0,0.1-0.1c0,0,0.1,0,0.1-0.1l0.1-0.1c0,0,0,0,0.1,0c0,0,0,0,0.1,0l0.2-0.1c0,0,0,0,0.1,0c0,0,0,0,0,0l0.1-0.1
		c0,0,0.1,0,0.1-0.1c0,0,0.1,0,0.1-0.1l0.1-0.1c0,0,0,0,0.1,0c0,0,0,0,0,0l0.2-0.1c0,0,0,0,0.1,0c0,0,0,0,0,0l0.1-0.1
		c0,0,0.1,0,0.1-0.1c0,0,0.1,0,0.1,0l0.1,0c1.5-0.8,2-2.7,1.2-4.1c-0.8-1.5-2.7-2-4.1-1.2l-0.1,0c0,0-0.1,0-0.1,0.1
		c0,0-0.1,0-0.1,0.1l-0.1,0.1c0,0,0,0-0.1,0c0,0,0,0,0,0l-0.2,0.1c0,0,0,0-0.1,0c0,0,0,0-0.1,0l-0.1,0.1c0,0-0.1,0-0.1,0.1
		c0,0-0.1,0-0.1,0.1l-0.1,0.1c0,0,0,0-0.1,0c0,0,0,0,0,0l-0.2,0.1c0,0,0,0-0.1,0c0,0,0,0-0.1,0l-0.1,0.1c0,0-0.1,0-0.1,0.1
		c0,0-0.1,0-0.1,0.1l-0.1,0.1c0,0,0,0-0.1,0c0,0,0,0,0,0l-0.2,0.1c0,0,0,0-0.1,0c0,0,0,0-0.1,0l-0.1,0.1c0,0-0.1,0-0.1,0.1
		c0,0-0.1,0-0.1,0.1l-0.1,0.1c0,0,0,0-0.1,0c0,0,0,0-0.1,0l-0.2,0.1c0,0,0,0-0.1,0c0,0,0,0-0.1,0l-0.1,0.1c0,0-0.1,0-0.1,0.1
		c0,0-0.1,0-0.1,0.1l-0.1,0.1c0,0,0,0,0,0c0,0,0,0-0.1,0l-0.2,0.1c0,0,0,0-0.1,0c0,0,0,0-0.1,0l-0.1,0.1c0,0-0.1,0-0.1,0.1
		c0,0-0.1,0-0.1,0.1l-0.1,0.1c0,0,0,0,0,0c0,0,0,0-0.1,0l-0.2,0.1c0,0,0,0-0.1,0c0,0,0,0-0.1,0l-0.1,0.1c0,0-0.1,0-0.1,0.1
		c0,0-0.1,0-0.1,0.1l-0.1,0.1c0,0,0,0-0.1,0c0,0,0,0,0,0l-0.2,0.1c0,0,0,0-0.1,0c0,0,0,0-0.1,0l-0.1,0.1c0,0-0.1,0-0.1,0.1
		c0,0-0.1,0-0.1,0.1l0,0l0,0l-0.1-0.1c0,0,0,0-0.1,0c0,0,0,0,0,0l-0.1-0.1c0,0,0,0,0,0c0,0,0,0,0,0c0,0,0,0-0.1,0l-0.2-0.1l0,0
		c0,0,0,0-0.1,0c0,0,0,0,0,0l-0.2-0.1c0,0,0,0-0.1,0c0,0,0,0,0,0l-0.1-0.1c0,0,0,0-0.1,0c0,0,0,0-0.1,0l-0.1-0.1c0,0,0,0,0,0
		l-0.1-0.1c0,0,0,0-0.1,0c0,0,0,0-0.1,0l-0.2-0.1c0,0,0,0-0.1,0c0,0,0,0-0.1,0c0,0,0,0,0,0l-0.1,0l0,0c0,0,0,0,0,0l0,0c0,0,0,0,0,0
		c0,0,0,0-0.1,0l-0.1,0c0,0,0,0,0,0l-0.1-0.1c0,0,0,0-0.1,0c0,0,0,0,0,0c0,0,0,0,0,0l-0.2-0.1c0,0,0,0-0.1,0c0,0,0,0-0.1,0l-0.1-0.1
		c0,0,0,0,0,0c0,0,0,0,0,0c0,0,0,0-0.1,0l-0.1-0.1c0,0,0,0,0,0l-0.1,0l0,0c0,0,0,0,0,0l0,0c0,0,0,0-0.1,0c0,0,0,0-0.1,0l-0.2-0.1
		c0,0,0,0-0.1,0c0,0,0,0-0.1,0l-0.1,0l0,0c0,0,0,0,0,0h0c0,0,0,0,0,0c0,0,0,0-0.1,0c0,0,0,0-0.1,0l-0.1,0c0,0,0,0,0,0l-0.1-0.1
		c0,0,0,0-0.1,0c0,0,0,0-0.1,0l-0.2-0.1c0,0,0,0-0.1,0c0,0,0,0,0,0l-0.1-0.1c0,0,0,0-0.1,0c0,0,0,0,0,0l-0.1-0.1c0,0,0,0,0,0
		l-0.1-0.1c0,0,0,0-0.1,0s0,0-0.1,0l-0.2-0.1c0,0,0,0-0.1,0c0,0,0,0,0,0l-0.1-0.1c0,0,0,0,0,0c0,0,0,0,0,0c0,0,0,0,0,0l-0.1-0.1
		c0,0,0,0,0,0l-0.1,0l0,0c0,0,0,0,0,0h0c0,0,0,0-0.1,0c0,0,0,0-0.1,0l-0.2-0.1c0,0,0,0-0.1,0c0,0,0,0-0.1,0l-0.1-0.1
		c0,0-0.1,0-0.1,0c0,0,0,0,0,0l-0.1-0.1c0,0,0,0,0,0l-0.1-0.1l0,0l0,0l0,0c0,0,0,0,0,0c0,0,0,0,0,0c0,0,0,0-0.1,0l-0.2-0.1
		c0,0,0,0-0.1,0c0,0,0,0,0,0l-0.1,0c-1.5-0.8-3.3-0.2-4.1,1.3c-0.2,0.4-0.3,0.9-0.3,1.4C-216.6,390.6-216,391.6-215,392.2z"/>
	<path d="M-202,414.6c0-1.7-1.4-3-3-3s-3,1.4-3,3v0.1c0,0,0,0.1,0,0.1c0,0,0,0.1,0,0.1v0.1c0,0,0,0,0,0.1s0,0,0,0.1v0.2
		c0,0,0,0,0,0.1c0,0,0,0,0,0.1v0.1c0,0,0,0.1,0,0.1c0,0,0,0.1,0,0.1v0.1c0,0,0,0,0,0.1c0,0,0,0,0,0.1v0.2c0,0,0,0,0,0.1
		c0,0,0,0,0,0.1v0.1c0,0,0,0.1,0,0.1c0,0,0,0.1,0,0.1v0.1c0,0,0,0,0,0.1c0,0,0,0,0,0.1v0.2c0,0,0,0,0,0.1s0,0,0,0.1v0.1
		c0,0,0,0.1,0,0.1c0,0,0,0.1,0,0.1v0.1c0,0,0,0,0,0.1c0,0,0,0,0,0.1v0.2c0,0,0,0,0,0.1c0,0,0,0,0,0.1v0.1c0,0,0,0.1,0,0.1
		c0,0,0,0.1,0,0.1v0.1c0,0,0,0,0,0.1c0,0,0,0,0,0.1v0.2c0,0,0,0,0,0.1c0,0,0,0,0,0.1v0.1c0,0,0,0.1,0,0.1c0,0,0,0.1,0,0.1v0.1
		c0,0,0,0,0,0.1c0,0,0,0,0,0.1v0.2c0,0,0,0,0,0.1c0,0,0,0,0,0.1v0.1c0,0,0,0.1,0,0.1c0,0,0,0.1,0,0.1v0.1c0,0,0,0,0,0.1
		c0,0,0,0,0,0.1v0.2c0,0,0,0,0,0.1c0,0,0,0,0,0.1v0.1c0,0,0,0.1,0,0.1c0,0,0,0.1,0,0.1v0.1c0,0,0,0,0,0.1s0,0,0,0.1v0.2
		c0,0,0,0,0,0.1c0,0,0,0,0,0.1v0.1c0,0,0,0.1,0,0.1c0,0,0,0.1,0,0.1v0.1c0,0,0,0,0,0.1c0,0,0,0,0,0.1v0.2c0,0,0,0,0,0.1
		c0,0,0,0,0,0.1v0.1c0,0,0,0.1,0,0.1c0,0,0,0.1,0,0.1v0.1c0,0,0,0,0,0.1c0,0,0,0,0,0.1v0.2c0,0,0,0,0,0.1c0,0,0,0,0,0.1v0.1
		c0,1.7,1.4,3,3,3s3-1.4,3-3v-0.1c0,0,0,0,0-0.1c0,0,0,0,0-0.1v-0.2c0,0,0,0,0-0.1c0,0,0,0,0-0.1v-0.1c0,0,0-0.1,0-0.1
		c0,0,0-0.1,0-0.1v-0.1c0,0,0,0,0-0.1c0,0,0,0,0-0.1v-0.2c0,0,0,0,0-0.1c0,0,0,0,0-0.1v-0.1c0,0,0-0.1,0-0.1c0,0,0-0.1,0-0.1v-0.1
		c0,0,0,0,0-0.1c0,0,0,0,0-0.1v-0.2c0,0,0,0,0-0.1c0,0,0,0,0-0.1v-0.1c0,0,0-0.1,0-0.1c0,0,0-0.1,0-0.1v-0.1c0,0,0,0,0-0.1
		c0,0,0,0,0-0.1v-0.2c0,0,0,0,0-0.1c0,0,0,0,0-0.1v-0.1c0,0,0-0.1,0-0.1c0,0,0-0.1,0-0.1v-0.1c0,0,0,0,0-0.1c0,0,0,0,0-0.1v-0.2
		c0,0,0,0,0-0.1c0,0,0,0,0-0.1v-0.1c0,0,0-0.1,0-0.1c0,0,0-0.1,0-0.1v-0.1c0,0,0,0,0-0.1c0,0,0,0,0-0.1V419c0,0,0,0,0-0.1
		c0,0,0,0,0-0.1v-0.1c0,0,0-0.1,0-0.1c0,0,0-0.1,0-0.1v-0.1c0,0,0,0,0-0.1c0,0,0,0,0-0.1V418c0,0,0,0,0-0.1c0,0,0,0,0-0.1v-0.1
		c0,0,0-0.1,0-0.1c0,0,0-0.1,0-0.1v-0.1c0,0,0,0,0-0.1c0,0,0,0,0-0.1V417c0,0,0,0,0-0.1c0,0,0,0,0-0.1v-0.1c0,0,0-0.1,0-0.1
		c0,0,0-0.1,0-0.1v-0.1c0,0,0,0,0-0.1c0,0,0,0,0-0.1v-0.2c0,0,0,0,0-0.1c0,0,0,0,0-0.1v-0.1c0,0,0-0.1,0-0.1c0,0,0-0.1,0-0.1v-0.1
		c0,0,0,0,0-0.1c0,0,0,0,0-0.1v-0.2c0,0,0,0,0-0.1c0,0,0,0,0-0.1v-0.1c0,0,0-0.1,0-0.1C-202,414.7-202,414.7-202,414.6L-202,414.6z"
		/>
	<path d="M-220.2,382.1L-220.2,382.1c-0.1,0-0.1,0-0.1-0.1c0,0,0,0,0,0l-0.2-0.1c0,0,0,0-0.1,0c0,0,0,0-0.1,0l-0.1-0.1
		c0,0-0.1,0-0.1-0.1c0,0-0.1,0-0.1-0.1l-0.1-0.1c0,0,0,0,0,0c0,0,0,0,0,0l-0.2-0.1c0,0,0,0-0.1,0c0,0,0,0,0,0l-0.1-0.1
		c0,0-0.1,0-0.1-0.1c0,0-0.1,0-0.1-0.1l-0.1-0.1c0,0,0,0-0.1,0c0,0,0,0,0,0l-0.2-0.1c0,0,0,0-0.1,0c0,0,0,0,0,0l-0.1-0.1
		c0,0-0.1,0-0.1-0.1c0,0-0.1,0-0.1-0.1l-0.1-0.1c0,0,0,0-0.1,0c0,0,0,0,0,0l-0.2-0.1c0,0,0,0-0.1,0c0,0,0,0-0.1,0l-0.1-0.1
		c0,0-0.1,0-0.1-0.1c0,0-0.1,0-0.1-0.1l-0.1-0.1c0,0,0,0,0,0c0,0,0,0-0.1,0l-0.2-0.1c0,0,0,0,0,0c0,0,0,0-0.1,0l-0.1-0.1
		c0,0-0.1,0-0.1-0.1c0,0-0.1,0-0.1-0.1l-0.1-0.1c0,0,0,0,0,0c0,0,0,0-0.1,0l-0.2-0.1c0,0,0,0,0,0c0,0,0,0-0.1,0l-0.1-0.1
		c0,0-0.1,0-0.1-0.1c0,0-0.1,0-0.1-0.1l-0.1-0.1c0,0,0,0-0.1,0c0,0,0,0,0,0l-0.2-0.1c0,0,0,0,0,0c0,0,0,0-0.1,0l-0.1-0.1
		c0,0-0.1,0-0.1-0.1c0,0-0.1,0-0.1-0.1l-0.1-0.1c0,0,0,0-0.1,0c0,0,0,0-0.1,0l-0.2-0.1c0,0,0,0,0,0c0,0,0,0-0.1,0l-0.1-0.1
		c0,0-0.1,0-0.1-0.1c0,0-0.1,0-0.1-0.1l-0.1-0.1c0,0,0,0-0.1,0c0,0,0,0-0.1,0l-0.2-0.1c0,0,0,0,0,0c0,0,0,0-0.1,0l-0.1-0.1
		c0,0-0.1,0-0.1,0c0,0-0.1,0-0.1-0.1l-0.1,0c-1.5-0.8-3.3-0.2-4.1,1.2c-0.8,1.5-0.3,3.3,1.2,4.1l0.1,0c0,0,0.1,0,0.1,0
		c0,0,0.1,0,0.1,0.1l0.1,0.1c0,0,0,0,0,0c0,0,0,0,0.1,0l0.2,0.1c0,0,0,0,0,0c0,0,0,0,0.1,0l0.1,0.1c0,0,0.1,0,0.1,0.1
		c0,0,0.1,0,0.1,0.1l0.1,0.1c0,0,0,0,0,0c0,0,0,0,0.1,0l0.2,0.1c0,0,0,0,0.1,0c0,0,0,0,0,0l0.1,0.1c0,0,0.1,0,0.1,0.1
		c0,0,0.1,0,0.1,0.1l0.1,0.1c0,0,0,0,0,0c0,0,0,0,0.1,0l0.2,0.1c0,0,0,0,0.1,0c0,0,0,0,0,0l0.1,0.1c0,0,0.1,0,0.1,0.1
		c0,0,0.1,0,0.1,0.1l0.1,0.1c0,0,0,0,0,0c0,0,0,0,0.1,0l0.2,0.1c0,0,0,0,0.1,0c0,0,0,0,0.1,0l0.1,0.1c0,0,0.1,0,0.1,0.1
		c0,0,0.1,0,0.1,0.1l0.1,0.1c0,0,0,0,0,0c0,0,0,0,0.1,0l0.2,0.1c0,0,0,0,0,0c0,0,0,0,0.1,0l0.1,0.1c0,0,0.1,0,0.1,0.1
		c0,0,0.1,0,0.1,0.1l0.1,0c0,0,0,0,0,0c0,0,0,0,0,0l0.2,0.1c0,0,0,0,0.1,0c0,0,0,0,0.1,0l0.1,0.1c0,0,0.1,0,0.1,0.1
		c0,0,0.1,0,0.1,0.1l0.1,0.1c0,0,0,0,0.1,0c0,0,0,0,0,0l0.2,0.1c0,0,0,0,0.1,0c0,0,0,0,0,0l0.1,0.1c0,0,0.1,0,0.1,0.1
		c0,0,0.1,0,0.1,0.1l0.1,0.1c0,0,0,0,0.1,0c0,0,0,0,0,0l0.2,0.1c0,0,0,0,0.1,0c0,0,0,0,0.1,0l0.1,0.1c0,0,0.1,0,0.1,0.1
		c0,0,0.1,0,0.1,0.1l0.1,0.1c0,0,0,0,0,0c0,0,0,0,0.1,0l0.2,0.1c0,0,0,0,0,0c0,0,0,0,0.1,0l0.1,0c0.5,0.2,1,0.4,1.4,0.4
		c1.1,0,2.1-0.6,2.7-1.6C-218.2,384.8-218.7,382.9-220.2,382.1z"/>
	<path d="M-235.5,373.1L-235.5,373.1c-0.1,0-0.1,0-0.1,0c0,0,0,0-0.1,0l-0.2-0.1c0,0,0,0-0.1,0c0,0,0,0-0.1,0l-0.1-0.1
		c0,0-0.1,0-0.1-0.1c0,0-0.1,0-0.1-0.1l-0.1-0.1c0,0,0,0-0.1,0c0,0,0,0-0.1,0l-0.2-0.1c0,0,0,0-0.1,0c0,0,0,0-0.1,0l-0.1-0.1
		c0,0-0.1,0-0.1-0.1c0,0-0.1,0-0.1-0.1l-0.1-0.1c0,0,0,0-0.1,0c0,0,0,0-0.1,0l-0.2-0.1c0,0,0,0-0.1,0c0,0,0,0-0.1,0l-0.1-0.1
		c0,0-0.1,0-0.1-0.1c0,0-0.1,0-0.1-0.1l-0.1-0.1c0,0,0,0-0.1,0c0,0,0,0-0.1,0l-0.2-0.1c0,0,0,0-0.1,0c0,0,0,0,0,0l-0.1-0.1
		c0,0-0.1,0-0.1-0.1c0,0-0.1,0-0.1-0.1l-0.1-0.1c0,0,0,0,0,0c0,0,0,0,0,0c0,0,0,0,0.1,0l0.1-0.1c0,0,0.1,0,0.1-0.1
		c0,0,0.1,0,0.1-0.1l0.1-0.1c0,0,0,0,0,0c0,0,0,0,0.1,0l0.2-0.1c0,0,0,0,0.1,0c0,0,0,0,0,0l0.1-0.1c0,0,0.1,0,0.1-0.1
		c0,0,0.1,0,0.1-0.1l0.1-0.1c0,0,0,0,0,0c0,0,0,0,0.1,0l0.2-0.1c0,0,0,0,0,0c0,0,0,0,0.1,0l0.1-0.1c0,0,0.1,0,0.1-0.1
		c0,0,0.1,0,0.1-0.1l0.1-0.1c0,0,0,0,0.1,0c0,0,0,0,0.1,0l0.2-0.1c0,0,0,0,0.1,0c0,0,0,0,0,0l0.1,0c1.5-0.8,2-2.7,1.2-4.1
		c-0.8-1.5-2.7-2-4.1-1.2l-0.1,0c0,0,0,0,0,0c0,0,0,0-0.1,0l-0.2,0.1c0,0,0,0-0.1,0c0,0,0,0,0,0l-0.1,0.1c0,0-0.1,0-0.1,0.1
		c0,0-0.1,0-0.1,0.1l-0.1,0.1c0,0,0,0,0,0c0,0,0,0-0.1,0l-0.2,0.1c0,0,0,0,0,0c0,0,0,0-0.1,0l-0.1,0.1c0,0-0.1,0-0.1,0.1
		c0,0-0.1,0-0.1,0.1l-0.1,0.1c0,0,0,0-0.1,0c0,0,0,0-0.1,0l-0.2,0.1c0,0,0,0-0.1,0c0,0,0,0-0.1,0l-0.1,0.1c0,0-0.1,0-0.1,0.1
		c0,0-0.1,0-0.1,0.1l-0.1,0.1c0,0,0,0,0,0c0,0,0,0-0.1,0l-0.2,0.1c0,0,0,0-0.1,0c0,0,0,0,0,0l-0.1,0.1c0,0-0.1,0-0.1,0.1
		c0,0-0.1,0-0.1,0.1l-0.1,0.1c0,0,0,0-0.1,0c0,0,0,0-0.1,0l-0.2,0.1c0,0,0,0-0.1,0c0,0,0,0-0.1,0l-0.1,0.1c0,0-0.1,0-0.1,0.1
		c0,0-0.1,0-0.1,0.1l-0.1,0.1c0,0,0,0-0.1,0c0,0,0,0-0.1,0l-0.2,0.1c0,0,0,0-0.1,0c0,0,0,0-0.1,0l-0.1,0.1c0,0-0.1,0-0.1,0.1
		c0,0-0.1,0-0.1,0.1l-0.1,0.1c0,0,0,0-0.1,0c0,0,0,0-0.1,0l-0.2,0.1c0,0,0,0-0.1,0c0,0,0,0,0,0l-0.1,0.1c0,0-0.1,0-0.1,0.1
		c0,0-0.1,0-0.1,0.1l-0.1,0.1c0,0,0,0-0.1,0c0,0,0,0-0.1,0l-0.2,0.1c0,0,0,0-0.1,0c0,0,0,0-0.1,0l-0.1,0.1c0,0-0.1,0-0.1,0.1
		c0,0-0.1,0-0.1,0.1l-0.1,0.1c0,0,0,0,0,0c0,0,0,0-0.1,0l-0.2,0.1c0,0,0,0,0,0c0,0,0,0-0.1,0l-0.1,0.1c0,0-0.1,0-0.1,0.1
		c0,0-0.1,0-0.1,0.1l0,0c0,0,0,0,0,0l0,0c0,0-0.1,0-0.1,0.1c0,0-0.1,0.1-0.1,0.1c0,0,0,0,0,0c0,0,0,0-0.1,0.1c0,0,0,0-0.1,0
		c0,0-0.1,0-0.1,0.1c0,0,0,0,0,0c0,0-0.1,0.1-0.1,0.1c0,0,0,0,0,0c0,0,0,0-0.1,0.1c0,0,0,0,0,0c0,0-0.1,0.1-0.1,0.1
		c0,0,0,0.1-0.1,0.1c0,0,0,0,0,0c0,0-0.1,0.1-0.1,0.1c0,0,0,0.1-0.1,0.1c0,0,0,0,0,0c0,0,0,0.1-0.1,0.1c0,0-0.1,0.1-0.1,0.1
		c0,0,0,0.1-0.1,0.1c0,0.1,0,0.1-0.1,0.2c0,0,0,0,0,0c0,0,0,0.1,0,0.1c0,0.1,0,0.1-0.1,0.2c0,0,0,0,0,0c0,0,0,0.1,0,0.1
		c0,0,0,0.1,0,0.1c0,0,0,0,0,0c0,0,0,0.1,0,0.2c0,0,0,0.1,0,0.1c0,0,0,0,0,0c0,0.1,0,0.1,0,0.2c0,0,0,0,0,0c0,0,0,0,0,0.1v0
		c0,0,0,0,0,0v0c0,0,0,0,0,0c0,0,0,0,0,0c0,0,0,0.1,0,0.1c0,0,0,0.1,0,0.1v0.1c0,0,0,0,0,0.1c0,0,0,0,0,0.1v0.2c0,0,0,0,0,0.1
		c0,0,0,0,0,0.1v0.1c0,0,0,0.1,0,0.1c0,0,0,0.1,0,0.1v0.1c0,0,0,0,0,0.1c0,0,0,0,0,0.1v0.2c0,0,0,0,0,0.1c0,0,0,0,0,0.1v0.1
		c0,0,0,0.1,0,0.1c0,0,0,0.1,0,0.1v0.1c0,0,0,0,0,0.1c0,0,0,0,0,0.1v0.2c0,0,0,0,0,0.1c0,0,0,0,0,0.1v0.1c0,0,0,0.1,0,0.1
		c0,0,0,0.1,0,0.1v0.1c0,0,0,0,0,0.1c0,0,0,0,0,0.1v0.2c0,0,0,0,0,0.1c0,0,0,0,0,0.1v0.1c0,0,0,0.1,0,0.1c0,0,0,0.1,0,0.1v0.1
		c0,0,0,0,0,0.1c0,0,0,0,0,0.1v0.2c0,0,0,0,0,0.1c0,0,0,0,0,0.1v0.1c0,0,0,0.1,0,0.1c0,0,0,0.1,0,0.1v0.1c0,0,0,0,0,0.1
		c0,0,0,0,0,0.1v0.2c0,0,0,0,0,0.1c0,0,0,0,0,0.1v0.1c0,0,0,0.1,0,0.1c0,0,0,0.1,0,0.1v0.1c0,0,0,0,0,0.1c0,0,0,0,0,0.1v0.2
		c0,0,0,0,0,0.1c0,0,0,0,0,0.1v0.1c0,0,0,0.1,0,0.1c0,0,0,0.1,0,0.1v0.1c0,0,0,0,0,0.1c0,0,0,0,0,0.1v0.2c0,0,0,0,0,0.1
		c0,0,0,0,0,0.1v0.1c0,0,0,0.1,0,0.1c0,0,0,0.1,0,0.1v0.1c0,0,0,0,0,0.1s0,0,0,0.1v0.2c0,0,0,0,0,0.1c0,0,0,0,0,0.1v0.1
		c0,0,0,0.1,0,0.1c0,0,0,0.1,0,0.1v0.1c0,0,0,0,0,0.1c0,0,0,0,0,0.1v0.2c0,0,0,0,0,0.1s0,0,0,0.1v0.1c0,1.7,1.4,3,3,3
		c1.7,0,3-1.4,3-3V381c0,0,0,0,0-0.1s0,0,0-0.1v-0.2c0,0,0,0,0-0.1c0,0,0,0,0-0.1v-0.1c0,0,0-0.1,0-0.1c0,0,0-0.1,0-0.1V380
		c0,0,0,0,0-0.1c0,0,0,0,0-0.1v-0.3c0,0,0,0,0-0.1c0,0,0,0,0-0.1v-0.1c0,0,0-0.1,0-0.1c0,0,0-0.1,0-0.1v-0.1c0,0,0,0,0-0.1
		c0,0,0,0,0-0.1v-0.2c0,0,0,0,0-0.1c0,0,0,0,0-0.1v-0.1c0,0,0-0.1,0-0.1c0,0,0-0.1,0-0.1v-0.1c0,0,0,0,0-0.1c0,0,0,0,0-0.1v-0.2
		c0,0,0,0,0-0.1c0,0,0,0,0-0.1v-0.1c0,0,0-0.1,0-0.1c0,0,0-0.1,0-0.1v-0.1c0,0,0,0,0-0.1c0,0,0,0,0-0.1v-0.2c0,0,0,0,0-0.1
		c0,0,0,0,0-0.1v-0.1c0,0,0-0.1,0-0.1c0,0,0,0,0,0c0,0,0,0,0,0c0,0,0.1,0,0.1,0.1l0.1,0.1c0,0,0,0,0.1,0c0,0,0,0,0,0l0.2,0.1
		c0,0,0,0,0.1,0c0,0,0,0,0,0l0.1,0.1c0,0,0.1,0,0.1,0.1c0,0,0.1,0,0.1,0.1l0.1,0.1c0,0,0,0,0.1,0c0,0,0,0,0,0l0.2,0.1c0,0,0,0,0.1,0
		c0,0,0,0,0.1,0l0.1,0.1c0,0,0.1,0,0.1,0.1c0,0,0.1,0,0.1,0.1l0.1,0.1c0,0,0,0,0.1,0c0,0,0,0,0.1,0l0.2,0.1c0,0,0,0,0.1,0
		c0,0,0,0,0.1,0l0.1,0.1c0,0,0.1,0,0.1,0.1c0,0,0.1,0,0.1,0.1l0.1,0.1c0,0,0,0,0,0c0,0,0,0,0.1,0l0.2,0.1c0,0,0,0,0.1,0
		c0,0,0,0,0.1,0l0.1,0.1c0,0,0.1,0,0.1,0.1c0,0,0.1,0,0.1,0.1l0.1,0.1c0,0,0,0,0.1,0c0,0,0,0,0.1,0l0.2,0.1c0,0,0,0,0.1,0
		c0,0,0,0,0.1,0l0.1,0c0.4,0.2,0.9,0.3,1.4,0.3c1.1,0,2.2-0.6,2.7-1.7C-233.4,375.7-234,373.8-235.5,373.1z"/>
	<path d="M-189.3,387.8c0.5,0,1-0.1,1.5-0.4l0.1,0c0,0,0,0,0.1,0c0,0,0,0,0,0l0.2-0.1c0,0,0,0,0.1,0c0,0,0,0,0.1,0l0.1-0.1
		c0,0,0.1,0,0.1-0.1c0,0,0.1,0,0.1-0.1l0.1-0.1c0,0,0,0,0.1,0c0,0,0,0,0.1,0l0.2-0.1c0,0,0,0,0.1,0c0,0,0,0,0.1,0l0.1-0.1
		c0,0,0.1,0,0.1-0.1c0,0,0.1,0,0.1-0.1l0.1-0.1c0,0,0,0,0.1,0c0,0,0,0,0.1,0l0.2-0.1c0,0,0,0,0.1,0c0,0,0,0,0.1,0l0.1-0.1
		c0,0,0.1,0,0.1-0.1c0,0,0.1,0,0.1-0.1l0.1-0.1c0,0,0,0,0.1,0c0,0,0,0,0.1,0l0.2-0.1c0,0,0,0,0.1,0c0,0,0,0,0.1,0l0.1-0.1
		c0,0,0.1,0,0.1-0.1c0,0,0.1,0,0.1-0.1l0.1-0.1c0,0,0,0,0,0c0,0,0,0,0.1,0l0.2-0.1c0,0,0,0,0.1,0c0,0,0,0,0.1,0l0.1-0.1
		c0,0,0.1,0,0.1-0.1c0,0,0.1,0,0.1-0.1l0.1-0.1c0,0,0,0,0.1,0c0,0,0,0,0.1,0l0.2-0.1c0,0,0,0,0,0c0,0,0,0,0.1,0l0.1-0.1
		c0,0,0.1,0,0.1-0.1c0,0,0.1,0,0.1-0.1l0.1-0.1c0,0,0,0,0.1,0c0,0,0,0,0,0l0.2-0.1c0,0,0,0,0.1,0c0,0,0,0,0,0l0.1-0.1
		c0,0,0.1,0,0.1-0.1c0,0,0.1,0,0.1-0.1l0.1-0.1c0,0,0,0,0.1,0c0,0,0,0,0.1,0l0.2-0.1c0,0,0,0,0.1,0c0,0,0,0,0,0l0.1-0.1
		c0,0,0.1,0,0.1-0.1c0,0,0.1,0,0.1-0.1l0.1-0.1c0,0,0,0,0.1,0c0,0,0,0,0,0l0.2-0.1c0,0,0,0,0.1,0c0,0,0,0,0,0l0.1-0.1
		c0,0,0.1,0,0.1-0.1c0,0,0.1,0,0.1,0l0.1,0c1.5-0.8,2-2.7,1.2-4.1c-0.8-1.5-2.7-2-4.1-1.2l-0.1,0c0,0-0.1,0-0.1,0.1
		c0,0-0.1,0-0.1,0.1l-0.1,0.1c0,0,0,0-0.1,0c0,0,0,0,0,0l-0.2,0.1c0,0,0,0-0.1,0c0,0,0,0-0.1,0l-0.1,0.1c0,0-0.1,0-0.1,0.1
		c0,0-0.1,0-0.1,0.1l-0.1,0.1c0,0,0,0-0.1,0c0,0,0,0,0,0l-0.2,0.1c0,0,0,0-0.1,0c0,0,0,0-0.1,0l-0.1,0.1c0,0-0.1,0-0.1,0.1
		c0,0-0.1,0-0.1,0.1l-0.1,0.1c0,0,0,0-0.1,0c0,0,0,0,0,0l-0.2,0.1c0,0,0,0-0.1,0c0,0,0,0,0,0l-0.1,0.1c0,0-0.1,0-0.1,0.1
		c0,0-0.1,0-0.1,0.1l-0.1,0.1c0,0,0,0,0,0c0,0,0,0-0.1,0l-0.2,0.1c0,0,0,0-0.1,0c0,0,0,0-0.1,0l-0.1,0.1c0,0-0.1,0-0.1,0.1
		c0,0-0.1,0-0.1,0.1l-0.1,0.1c0,0,0,0-0.1,0c0,0,0,0-0.1,0l-0.2,0.1c0,0,0,0,0,0c0,0,0,0-0.1,0l-0.1,0.1c0,0-0.1,0-0.1,0.1
		c0,0-0.1,0-0.1,0.1l-0.1,0.1c0,0,0,0-0.1,0c0,0,0,0-0.1,0l-0.2,0.1c0,0,0,0-0.1,0c0,0,0,0-0.1,0l-0.1,0.1c0,0-0.1,0-0.1,0.1
		c0,0-0.1,0-0.1,0.1l-0.1,0.1c0,0,0,0,0,0c0,0,0,0-0.1,0l-0.2,0.1c0,0,0,0-0.1,0c0,0,0,0,0,0l-0.1,0.1c0,0-0.1,0-0.1,0.1
		c0,0-0.1,0-0.1,0.1l-0.1,0.1c0,0,0,0-0.1,0c0,0,0,0-0.1,0l-0.2,0.1c0,0,0,0-0.1,0c0,0,0,0-0.1,0l-0.1,0.1c0,0-0.1,0-0.1,0.1
		c0,0-0.1,0-0.1,0.1l-0.1,0.1c0,0,0,0-0.1,0c0,0,0,0-0.1,0l-0.2,0.1c0,0,0,0-0.1,0c0,0,0,0-0.1,0l-0.1,0c-1.5,0.8-2,2.7-1.2,4.1
		C-191.4,387.2-190.3,387.8-189.3,387.8z"/>
	<path d="M-198.8,436.9L-198.8,436.9c-0.1,0-0.1,0.1-0.2,0.1c0,0-0.1,0-0.1,0.1l-0.1,0.1c0,0,0,0-0.1,0c0,0,0,0-0.1,0l-0.2,0.1
		c0,0,0,0-0.1,0c0,0,0,0-0.1,0l-0.1,0.1c0,0-0.1,0-0.1,0.1c0,0-0.1,0-0.1,0.1l-0.1,0.1c0,0,0,0-0.1,0c0,0,0,0,0,0l-0.2,0.1
		c0,0,0,0-0.1,0c0,0,0,0,0,0l-0.1,0.1c0,0-0.1,0-0.1,0.1c0,0-0.1,0-0.1,0.1l-0.1,0.1c0,0,0,0-0.1,0c0,0,0,0,0,0l-0.2,0.1
		c0,0,0,0-0.1,0c0,0,0,0,0,0l-0.1,0.1c0,0-0.1,0-0.1,0.1c0,0-0.1,0-0.1,0.1l-0.1,0.1c0,0,0,0-0.1,0c0,0,0,0-0.1,0l-0.1,0.1v-0.1
		c0,0,0,0,0-0.1c0,0,0,0,0-0.1v-0.1c0,0,0-0.1,0-0.1c0,0,0-0.1,0-0.1V438c0,0,0,0,0-0.1c0,0,0,0,0-0.1v-0.2c0,0,0,0,0-0.1
		c0,0,0,0,0-0.1v-0.1c0,0,0-0.1,0-0.1c0,0,0-0.1,0-0.1v-0.1c0,0,0,0,0-0.1c0,0,0,0,0-0.1v-0.2c0,0,0,0,0-0.1c0,0,0,0,0-0.1v-0.1
		c0,0,0-0.1,0-0.1c0,0,0-0.1,0-0.1v-0.1c0,0,0,0,0-0.1c0,0,0,0,0-0.1v-0.2c0,0,0,0,0-0.1c0,0,0,0,0-0.1v-0.1c0,0,0-0.1,0-0.1
		c0,0,0-0.1,0-0.1v-0.1c0,0,0,0,0-0.1c0,0,0,0,0-0.1v-0.2c0,0,0,0,0-0.1c0,0,0,0,0-0.1v-0.1c0,0,0-0.1,0-0.1c0,0,0-0.1,0-0.1v-0.1
		c0-1.7-1.4-3-3-3s-3,1.4-3,3v0.1c0,0,0,0.1,0,0.1c0,0,0,0.1,0,0.1v0.1c0,0,0,0,0,0.1c0,0,0,0,0,0.1v0.2c0,0,0,0,0,0.1
		c0,0,0,0,0,0.1v0.1c0,0,0,0.1,0,0.1c0,0,0,0.1,0,0.1v0.1c0,0,0,0,0,0.1s0,0,0,0.1v0.2c0,0,0,0,0,0.1c0,0,0,0,0,0.1v0.1
		c0,0,0,0.1,0,0.1c0,0,0,0.1,0,0.1v0.1c0,0,0,0,0,0.1c0,0,0,0,0,0.1v0.2c0,0,0,0,0,0.1c0,0,0,0,0,0.1v0.1c0,0,0,0.1,0,0.1
		c0,0,0,0.1,0,0.1v0.1c0,0,0,0,0,0.1c0,0,0,0,0,0.1v0.2c0,0,0,0,0,0.1s0,0,0,0.1v0.1c0,0,0,0.1,0,0.1c0,0,0,0.1,0,0.1v0.1
		c0,0,0,0,0,0.1s0,0,0,0.1v0.2c0,0,0,0,0,0c0,0,0,0,0,0l-0.1,0c0,0,0,0,0,0l-0.1-0.1c0,0,0,0-0.1,0c0,0,0,0,0,0l-0.2-0.1
		c0,0,0,0-0.1,0c0,0,0,0-0.1,0l-0.1-0.1c0,0,0,0-0.1,0c0,0,0,0,0,0c0,0,0,0-0.1,0l-0.2-0.1l0,0c0,0,0,0,0,0h0c0,0,0,0,0,0
		c0,0,0,0,0,0c0,0,0,0-0.1,0l-0.2-0.1c0,0,0,0-0.1,0c0,0,0,0-0.1,0l-0.1,0l0,0c0,0,0,0,0,0l0,0c0,0,0,0,0,0c0,0,0,0,0,0
		c0,0,0,0-0.1,0l-0.1,0c0,0,0,0,0,0l-0.1-0.1c0,0,0,0-0.1,0c0,0,0,0-0.1,0l-0.2-0.1c0,0,0,0,0,0c0,0,0,0-0.1,0l-0.1-0.1
		c0,0,0,0-0.1,0c0,0,0,0-0.1,0l-0.1,0c0,0,0,0,0,0l-0.1-0.1c0,0,0,0-0.1,0c0,0,0,0,0,0l-0.2-0.1c0,0,0,0-0.1,0c0,0,0,0-0.1,0
		l-0.1-0.1c0,0-0.1,0-0.1,0c0,0,0,0,0,0l-0.2-0.1c0,0,0,0,0,0c0,0,0,0,0,0c0,0,0,0-0.1,0l-0.2-0.1c0,0,0,0-0.1,0c0,0,0,0,0,0l-0.1,0
		c-1.5-0.8-3.3-0.2-4.1,1.3c-0.2,0.4-0.3,0.9-0.3,1.4c0,1.1,0.6,2.2,1.7,2.7l0.1,0c0,0,0,0,0.1,0c0,0,0,0,0.1,0l0.1,0c0,0,0,0,0,0
		l0.1,0.1c0,0,0,0,0.1,0c0,0,0,0,0,0l0.2,0.1c0,0,0,0,0,0c0,0,0,0,0.1,0c0,0,0,0,0,0l0.1,0.1c0,0,0,0,0.1,0c0,0,0,0,0.1,0l0.1,0.1
		c0,0,0,0,0,0l0.1,0l0,0c0,0,0,0,0,0h0c0,0,0,0,0.1,0c0,0,0,0,0.1,0l0.2,0.1c0,0,0,0,0.1,0c0,0,0,0,0.1,0l0.1,0.1c0,0,0,0,0,0
		c0,0,0,0,0,0c0,0,0,0,0.1,0l0.1,0c0,0,0,0,0,0l0.1,0.1c0,0,0,0,0.1,0c0,0,0,0,0.1,0l0.2,0.1c0,0,0,0,0.1,0c0,0,0,0,0,0l0.1,0.1
		c0,0,0,0,0.1,0c0,0,0,0,0,0l0.1,0c0,0,0,0,0,0l0.1,0.1c0,0,0,0,0,0c0,0,0,0,0.1,0l0.2,0.1c0,0,0,0,0.1,0c0,0,0,0,0.1,0l0.1,0.1
		c0,0,0,0,0.1,0c0,0,0,0,0.1,0l0.1,0c0,0,0,0,0,0l0.1,0.1c0,0,0,0,0.1,0c0,0,0,0,0.1,0l0.2,0.1c0,0,0,0,0,0c0,0,0,0,0.1,0l0.1,0.1
		c0,0,0,0,0,0c0,0,0,0,0,0c0,0,0,0,0,0l0.1,0c0,0,0,0,0,0l0.1,0.1c0,0,0,0,0.1,0c0,0,0,0,0,0l0.2,0.1c0,0,0,0,0.1,0c0,0,0,0,0.1,0
		l0.1,0.1c0,0,0,0,0,0c0,0,0,0,0,0c0,0,0,0,0.1,0l0.2,0.1l0,0c0,0,0,0,0,0v0c0,0,0,0,0,0c0,0,0,0,0,0c0,0,0,0,0.1,0l0.2,0.1
		c0,0,0,0,0.1,0c0,0,0,0,0,0l0.1,0.1c0,0,0,0,0.1,0c0,0,0,0,0.1,0l0.1,0c0,0,0,0,0,0l0.1,0.1c0,0,0,0,0.1,0c0,0,0,0,0,0l0.2,0.1
		c0,0,0,0,0.1,0c0,0,0,0,0.1,0l0.1,0.1c0,0,0,0,0.1,0c0,0,0,0,0.1,0l0.1,0.1c0,0,0,0,0,0l0.1,0l0,0c0,0,0,0,0,0l0,0c0,0,0,0,0.1,0
		c0,0,0,0,0.1,0l0.2,0.1c0,0,0,0,0.1,0c0,0,0,0,0.1,0l0.1,0.1c0,0,0,0,0.1,0c0,0,0,0,0,0l0.1,0.1l0.1,0c0,0,0,0,0.1,0c0,0,0,0,0.1,0
		l0.2,0.1c0,0,0,0,0.1,0c0,0,0,0,0,0c0,0,0,0,0,0c0,0,0,0,0,0l0.1,0c0,0,0,0,0,0c0.1,0,0.2,0.1,0.2,0.1c0,0,0,0,0,0c0,0,0,0,0.1,0
		c0.1,0,0.1,0,0.2,0.1c0,0,0.1,0,0.1,0c0.1,0,0.1,0,0.2,0c0,0,0.1,0,0.1,0c0.1,0,0.2,0,0.3,0c0,0,0,0,0.1,0c0,0,0,0,0,0
		c0.1,0,0.2,0,0.3,0c0,0,0,0,0,0c0,0,0,0,0.1,0c0.1,0,0.2,0,0.2,0c0,0,0.1,0,0.1,0c0,0,0,0,0.1,0c0.1,0,0.2-0.1,0.2-0.1
		c0,0,0,0,0.1,0c0.1,0,0.2-0.1,0.3-0.2c0,0,0,0,0,0l0.1,0c0,0,0,0,0,0c0,0,0,0,0,0c0,0,0,0,0,0c0,0,0,0,0.1,0l0.2-0.1c0,0,0,0,0,0
		c0,0,0,0,0.1,0l0.1-0.1c0,0,0.1,0,0.1-0.1c0,0,0.1,0,0.1-0.1l0.1-0.1c0,0,0,0,0.1,0c0,0,0,0,0,0l0.2-0.1c0,0,0,0,0.1,0
		c0,0,0,0,0.1,0l0.1-0.1c0,0,0.1,0,0.1-0.1c0,0,0.1,0,0.1-0.1l0.1-0.1c0,0,0,0,0.1,0c0,0,0,0,0,0l0.2-0.1c0,0,0,0,0,0c0,0,0,0,0.1,0
		l0.1-0.1c0,0,0.1,0,0.1-0.1c0,0,0.1,0,0.1-0.1l0.1-0.1c0,0,0,0,0,0c0,0,0,0,0.1,0l0.2-0.1c0,0,0,0,0.1,0s0,0,0.1,0l0.1-0.1
		c0,0,0.1,0,0.1-0.1c0,0,0.1,0,0.1-0.1l0.1-0.1c0,0,0,0,0,0c0,0,0,0,0.1,0l0.2-0.1c0,0,0,0,0.1,0c0,0,0,0,0.1,0l0.1-0.1
		c0,0,0.1,0,0.1-0.1c0,0,0.1,0,0.1-0.1l0.1-0.1c0,0,0,0,0,0c0,0,0,0,0.1,0l0.2-0.1c0,0,0,0,0.1,0c0,0,0,0,0.1,0l0.1-0.1
		c0,0,0.1,0,0.1-0.1c0,0,0.1,0,0.1-0.1l0.1-0.1c0,0,0,0,0.1,0c0,0,0,0,0,0l0.2-0.1c0,0,0,0,0.1,0c0,0,0,0,0,0l0.1-0.1
		c0,0,0.1,0,0.1-0.1c0,0,0.1,0,0.1-0.1l0.1-0.1c0,0,0,0,0.1,0c0,0,0,0,0,0l0.2-0.1c0,0,0,0,0.1,0c0,0,0,0,0,0l0.1-0.1
		c0,0,0.1,0,0.1-0.1c0,0,0.1,0,0.1-0.1l0.1-0.1c0,0,0,0,0.1,0c0,0,0,0,0,0l0.2-0.1c0,0,0,0,0,0c0,0,0,0,0.1,0l0.1-0.1
		c0,0,0.1,0,0.1-0.1c0,0,0.1,0,0.1,0l0.1,0c1.5-0.8,2-2.7,1.2-4.1C-195.4,436.6-197.3,436.1-198.8,436.9z"/>
	<path d="M-162.1,423.2c0,0,0.1-0.1,0.1-0.1c0,0,0.1-0.1,0.1-0.1c0,0,0.1-0.1,0.1-0.1c0,0,0-0.1,0.1-0.1c0-0.1,0.1-0.1,0.1-0.2
		c0,0,0-0.1,0-0.1c0-0.1,0-0.1,0.1-0.2c0,0,0-0.1,0-0.1c0-0.1,0-0.1,0-0.2c0,0,0-0.1,0-0.1c0,0,0-0.1,0-0.1c0-0.1,0-0.2,0-0.2
		c0,0,0,0,0-0.1v0c0,0,0,0,0,0v0c0,0,0,0,0-0.1c0,0,0,0,0-0.1V421c0,0,0,0,0-0.1c0,0,0,0,0-0.1v-0.1c0,0,0-0.1,0-0.1
		c0,0,0-0.1,0-0.1v-0.1c0,0,0,0,0-0.1c0,0,0,0,0-0.1V420c0,0,0,0,0-0.1c0,0,0,0,0-0.1v-0.1c0,0,0-0.1,0-0.1c0,0,0-0.1,0-0.1v-0.1
		c0,0,0,0,0-0.1c0,0,0,0,0-0.1v-0.2c0,0,0,0,0-0.1c0,0,0,0,0-0.1v-0.1c0,0,0-0.1,0-0.1c0,0,0-0.1,0-0.1v-0.1c0,0,0,0,0-0.1
		c0,0,0,0,0-0.1v-0.2c0,0,0,0,0-0.1s0,0,0-0.1v-0.1c0,0,0-0.1,0-0.1c0,0,0-0.1,0-0.1v-0.1c0,0,0,0,0-0.1s0,0,0-0.1v-0.2
		c0,0,0,0,0-0.1c0,0,0,0,0-0.1v-0.1c0,0,0-0.1,0-0.1c0,0,0-0.1,0-0.1v-0.1c0,0,0,0,0-0.1c0,0,0,0,0-0.1v-0.2c0,0,0,0,0-0.1
		c0,0,0,0,0-0.1v-0.1c0,0,0-0.1,0-0.1c0,0,0-0.1,0-0.1v-0.1c0,0,0,0,0-0.1c0,0,0,0,0-0.1v-0.2c0,0,0,0,0-0.1s0,0,0-0.1V415
		c0,0,0-0.1,0-0.1c0,0,0-0.1,0-0.1v-0.1c0,0,0,0,0-0.1s0,0,0-0.1v-0.2c0,0,0,0,0-0.1c0,0,0,0,0-0.1V414c0,0,0-0.1,0-0.1
		c0,0,0-0.1,0-0.1v-0.1c0,0,0,0,0-0.1c0,0,0,0,0-0.1v-0.2c0,0,0,0,0-0.1c0,0,0,0,0-0.1V413c0,0,0-0.1,0-0.1c0,0,0-0.1,0-0.1v-0.1
		c0,0,0,0,0-0.1c0,0,0,0,0-0.1v-0.2c0,0,0,0,0-0.1c0,0,0,0,0-0.1v-0.1c0,0,0-0.1,0-0.1c0,0,0-0.1,0-0.1v-0.1c0-1.7-1.4-3-3-3
		c-1.7,0-3,1.4-3,3v0.1c0,0,0,0.1,0,0.1c0,0,0,0.1,0,0.1v0.1c0,0,0,0,0,0.1c0,0,0,0,0,0.1v0.2c0,0,0,0,0,0.1s0,0,0,0.1v0.1
		c0,0,0,0.1,0,0.1c0,0,0,0.1,0,0.1v0.1c0,0,0,0,0,0.1c0,0,0,0,0,0.1v0.2c0,0,0,0,0,0.1c0,0,0,0,0,0.1v0.1c0,0,0,0.1,0,0.1
		c0,0,0,0.1,0,0.1v0.1c0,0,0,0,0,0.1c0,0,0,0,0,0.1v0.2c0,0,0,0,0,0.1c0,0,0,0,0,0.1v0.1c0,0,0,0.1,0,0.1c0,0,0,0.1,0,0.1v0.1
		c0,0,0,0,0,0.1c0,0,0,0,0,0.1v0.2c0,0,0,0,0,0.1c0,0,0,0,0,0.1v0.1c0,0,0,0.1,0,0.1c0,0,0,0.1,0,0.1v0.1c0,0,0,0,0,0.1
		c0,0,0,0,0,0.1v0.2c0,0,0,0,0,0.1c0,0,0,0,0,0.1v0.1c0,0,0,0.1,0,0.1c0,0,0,0.1,0,0.1v0.1c0,0,0,0,0,0.1c0,0,0,0,0,0.1v0.2
		c0,0,0,0,0,0.1c0,0,0,0,0,0.1v0.1c0,0,0,0.1,0,0.1c0,0,0,0.1,0,0.1v0.1c0,0,0,0,0,0.1c0,0,0,0,0,0.1v0.2c0,0,0,0,0,0.1
		c0,0,0,0,0,0.1v0.1c0,0,0,0.1,0,0.1c0,0,0,0.1,0,0.1v0.1c0,0,0,0,0,0.1c0,0,0,0,0,0.1v0.2c0,0,0,0,0,0.1c0,0,0,0,0,0.1v0.1
		c0,0,0,0.1,0,0.1c0,0,0,0,0,0c0,0,0,0-0.1,0l-0.1,0.1c0,0-0.1,0-0.1,0.1c0,0-0.1,0-0.1,0.1l-0.1,0.1c0,0,0,0-0.1,0c0,0,0,0-0.1,0
		l-0.2,0.1c0,0,0,0,0,0c0,0,0,0-0.1,0l-0.1,0.1c0,0-0.1,0-0.1,0.1c0,0-0.1,0-0.1,0.1l-0.1,0.1c0,0,0,0-0.1,0c0,0,0,0-0.1,0l-0.2,0.1
		c0,0,0,0,0,0c0,0,0,0-0.1,0l-0.1,0.1c0,0-0.1,0-0.1,0.1c0,0-0.1,0-0.1,0.1l-0.1,0.1c0,0,0,0-0.1,0c0,0,0,0-0.1,0l-0.2,0.1
		c0,0,0,0-0.1,0c0,0,0,0,0,0l-0.1,0.1c0,0-0.1,0-0.1,0.1c0,0-0.1,0-0.1,0.1l-0.1,0.1c0,0,0,0-0.1,0c0,0,0,0-0.1,0l-0.2,0.1
		c0,0,0,0-0.1,0c0,0,0,0,0,0l-0.1,0.1c0,0-0.1,0-0.1,0.1c0,0-0.1,0-0.1,0.1l-0.1,0.1c0,0,0,0-0.1,0c0,0,0,0-0.1,0l-0.2,0.1
		c0,0,0,0-0.1,0c0,0,0,0-0.1,0l-0.1,0.1c0,0-0.1,0-0.1,0.1c0,0-0.1,0-0.1,0.1l-0.1,0.1c0,0,0,0-0.1,0c0,0,0,0-0.1,0l-0.2,0.1
		c0,0,0,0-0.1,0c0,0,0,0-0.1,0l-0.1,0.1c0,0-0.1,0-0.1,0.1c0,0-0.1,0-0.1,0.1l-0.1,0.1c0,0,0,0-0.1,0c0,0,0,0,0,0l-0.2,0.1
		c0,0,0,0-0.1,0c0,0,0,0,0,0l-0.1,0c-1.5,0.8-2,2.7-1.2,4.1c0.6,1,1.6,1.6,2.7,1.6c0.5,0,1-0.1,1.5-0.4l0.1,0c0,0,0,0,0.1,0
		c0,0,0,0,0,0l0.2-0.1c0,0,0,0,0.1,0c0,0,0,0,0,0l0.1-0.1c0,0,0.1,0,0.1-0.1c0,0,0.1,0,0.1-0.1l0.1-0.1c0,0,0,0,0.1,0c0,0,0,0,0.1,0
		l0.2-0.1c0,0,0,0,0.1,0c0,0,0,0,0.1,0l0.1-0.1c0,0,0.1,0,0.1-0.1c0,0,0.1,0,0.1-0.1l0.1-0.1c0,0,0,0,0,0c0,0,0,0,0.1,0l0.2-0.1
		c0,0,0,0,0.1,0c0,0,0,0,0.1,0l0.1-0.1c0,0,0.1,0,0.1-0.1c0,0,0.1,0,0.1-0.1l0.1-0.1c0,0,0,0,0.1,0c0,0,0,0,0,0l0.2-0.1
		c0,0,0,0,0.1,0c0,0,0,0,0.1,0l0.1-0.1c0,0,0.1,0,0.1-0.1c0,0,0.1,0,0.1-0.1l0.1-0.1c0,0,0,0,0.1,0c0,0,0,0,0,0l0.2-0.1
		c0,0,0,0,0.1,0c0,0,0,0,0.1,0l0.1-0.1c0,0,0.1,0,0.1-0.1c0,0,0.1,0,0.1-0.1l0.1-0.1c0,0,0,0,0,0c0,0,0,0,0.1,0l0.2-0.1
		c0,0,0,0,0.1,0c0,0,0,0,0.1,0l0.1-0.1c0,0,0.1,0,0.1-0.1c0,0,0.1,0,0.1-0.1l0.1-0.1c0,0,0,0,0,0c0,0,0,0,0.1,0l0.2-0.1
		c0,0,0,0,0.1,0c0,0,0,0,0.1,0l0.1-0.1c0,0,0.1,0,0.1-0.1c0,0,0.1,0,0.1-0.1l0.1-0.1c0,0,0,0,0.1,0c0,0,0,0,0,0l0.2-0.1
		c0,0,0,0,0.1,0c0,0,0,0,0.1,0l0.1-0.1c0,0,0.1,0,0.1-0.1c0,0,0.1,0,0.1-0.1l0.1-0.1c0,0,0,0,0.1,0c0,0,0,0,0,0l0.2-0.1c0,0,0,0,0,0
		c0,0,0,0,0.1,0l0.1-0.1c0,0,0.1,0,0.1-0.1c0,0,0.1,0,0.1,0l0,0c0,0,0,0,0,0l0,0c0,0,0,0,0,0c0.1,0,0.2-0.1,0.2-0.1
		c0,0,0.1-0.1,0.1-0.1c0,0,0.1-0.1,0.1-0.1c0,0,0.1-0.1,0.1-0.1c0,0,0.1-0.1,0.1-0.1c0,0,0.1-0.1,0.1-0.1c0,0,0.1-0.1,0.1-0.1
		C-162.1,423.3-162.1,423.2-162.1,423.2z"/>
	<path d="M-183,427.8L-183,427.8c-0.1,0-0.1,0.1-0.2,0.1c0,0-0.1,0-0.1,0.1l-0.1,0.1c0,0,0,0-0.1,0c0,0,0,0-0.1,0l-0.2,0.1
		c0,0,0,0-0.1,0c0,0,0,0-0.1,0l-0.1,0.1c0,0-0.1,0-0.1,0.1c0,0-0.1,0-0.1,0.1l-0.1,0.1c0,0,0,0-0.1,0c0,0,0,0,0,0l-0.2,0.1
		c0,0,0,0-0.1,0c0,0,0,0,0,0l-0.1,0.1c0,0-0.1,0-0.1,0.1c0,0-0.1,0-0.1,0.1l-0.1,0.1c0,0,0,0-0.1,0c0,0,0,0,0,0l-0.2,0.1
		c0,0,0,0-0.1,0c0,0,0,0,0,0l-0.1,0.1c0,0-0.1,0-0.1,0.1c0,0-0.1,0-0.1,0.1l-0.1,0.1c0,0,0,0-0.1,0c0,0,0,0-0.1,0l-0.2,0.1
		c0,0,0,0,0,0c0,0,0,0-0.1,0l-0.1,0.1c0,0-0.1,0-0.1,0.1c0,0-0.1,0-0.1,0.1l-0.1,0.1c0,0,0,0-0.1,0c0,0,0,0-0.1,0l-0.2,0.1
		c0,0,0,0,0,0c0,0,0,0-0.1,0l-0.1,0.1c0,0-0.1,0-0.1,0.1c0,0-0.1,0-0.1,0.1l-0.1,0.1c0,0,0,0-0.1,0c0,0,0,0-0.1,0l-0.2,0.1
		c0,0,0,0,0,0c0,0,0,0-0.1,0l-0.1,0.1c0,0-0.1,0-0.1,0.1c0,0-0.1,0-0.1,0.1l-0.1,0.1c0,0,0,0,0,0c0,0,0,0-0.1,0l-0.2,0.1
		c0,0,0,0-0.1,0c0,0,0,0,0,0l-0.1,0.1c0,0-0.1,0-0.1,0.1c0,0-0.1,0-0.1,0.1l-0.1,0.1c0,0,0,0-0.1,0c0,0,0,0-0.1,0l-0.2,0.1
		c0,0,0,0-0.1,0c0,0,0,0,0,0l-0.1,0.1c0,0-0.1,0-0.1,0.1c0,0-0.1,0-0.1,0.1l-0.1,0.1c0,0,0,0,0,0c0,0,0,0-0.1,0l-0.2,0.1
		c0,0,0,0,0,0c0,0,0,0,0,0l-0.1,0c-1.5,0.8-2,2.7-1.2,4.1c0.6,1,1.6,1.6,2.7,1.6c0.5,0,1-0.1,1.5-0.4l0.1,0c0,0,0,0,0.1,0
		c0,0,0,0,0.1,0l0.2-0.1c0,0,0,0,0,0c0,0,0,0,0.1,0l0.1-0.1c0,0,0.1,0,0.1-0.1c0,0,0.1,0,0.1-0.1l0.1-0.1c0,0,0,0,0.1,0c0,0,0,0,0,0
		l0.2-0.1c0,0,0,0,0,0c0,0,0,0,0.1,0l0.1-0.1c0,0,0.1,0,0.1-0.1c0,0,0.1,0,0.1-0.1l0.1-0.1c0,0,0,0,0.1,0c0,0,0,0,0,0l0.2-0.1
		c0,0,0,0,0.1,0c0,0,0,0,0.1,0l0.1-0.1c0,0,0.1,0,0.1-0.1c0,0,0.1,0,0.1-0.1l0.1-0.1c0,0,0,0,0,0c0,0,0,0,0.1,0l0.2-0.1
		c0,0,0,0,0.1,0s0,0,0.1,0l0.1-0.1c0,0,0.1,0,0.1-0.1c0,0,0.1,0,0.1-0.1l0.1-0.1c0,0,0,0,0,0c0,0,0,0,0.1,0l0.2-0.1c0,0,0,0,0.1,0
		c0,0,0,0,0.1,0l0.1-0.1c0,0,0.1,0,0.1-0.1c0,0,0.1,0,0.1-0.1l0.1-0.1c0,0,0,0,0,0c0,0,0,0,0.1,0l0.2-0.1c0,0,0,0,0.1,0
		c0,0,0,0,0.1,0l0.1-0.1c0,0,0.1,0,0.1-0.1c0,0,0.1,0,0.1-0.1l0.1-0.1c0,0,0,0,0.1,0c0,0,0,0,0,0l0.2-0.1c0,0,0,0,0.1,0c0,0,0,0,0,0
		l0.1-0.1c0,0,0.1,0,0.1-0.1c0,0,0.1,0,0.1-0.1l0.1-0.1c0,0,0,0,0.1,0c0,0,0,0,0,0l0.2-0.1c0,0,0,0,0.1,0c0,0,0,0,0.1,0l0.1-0.1
		c0,0,0.1,0,0.1-0.1c0,0,0.1,0,0.1-0.1l0.1-0.1c0,0,0,0,0.1,0c0,0,0,0,0,0l0.2-0.1c0,0,0,0,0,0c0,0,0,0,0.1,0l0.1-0.1
		c0,0,0.1-0.1,0.1-0.1c0,0,0.1,0,0.1,0l0.1,0c1.5-0.8,2-2.7,1.2-4.1C-179.7,427.6-181.5,427-183,427.8z"/>
	<path d="M-161.5,392.1c0-1.7-1.4-3-3-3c-1.7,0-3,1.4-3,3v0.1c0,0,0,0.1,0,0.1c0,0,0,0.1,0,0.1v0.1c0,0,0,0,0,0.1c0,0,0,0,0,0.1v0.2
		c0,0,0,0,0,0.1c0,0,0,0,0,0.1v0.1c0,0,0,0.1,0,0.1c0,0,0,0.1,0,0.1v0.1c0,0,0,0,0,0.1c0,0,0,0,0,0.1v0.2c0,0,0,0,0,0.1
		c0,0,0,0,0,0.1v0.1c0,0,0,0.1,0,0.1c0,0,0,0.1,0,0.1v0.1c0,0,0,0,0,0.1c0,0,0,0,0,0.1v0.2c0,0,0,0,0,0.1c0,0,0,0,0,0.1v0.1
		c0,0,0,0.1,0,0.1c0,0,0,0.1,0,0.1v0.1c0,0,0,0,0,0.1c0,0,0,0,0,0.1v0.2c0,0,0,0,0,0.1c0,0,0,0,0,0.1v0.1c0,0,0,0.1,0,0.1
		c0,0,0,0.1,0,0.1v0.1c0,0,0,0,0,0.1c0,0,0,0,0,0.1v0.2c0,0,0,0,0,0.1c0,0,0,0,0,0.1v0.1c0,0,0,0.1,0,0.1c0,0,0,0.1,0,0.1v0.1
		c0,0,0,0,0,0.1c0,0,0,0,0,0.1v0.2c0,0,0,0,0,0.1c0,0,0,0,0,0.1v0.1c0,0,0,0.1,0,0.1c0,0,0,0.1,0,0.1v0.1c0,0,0,0,0,0.1
		c0,0,0,0,0,0.1v0.2c0,0,0,0,0,0.1c0,0,0,0,0,0.1v0.1c0,0,0,0.1,0,0.1c0,0,0,0.1,0,0.1v0.1c0,0,0,0,0,0.1c0,0,0,0,0,0.1v0.2
		c0,0,0,0,0,0.1c0,0,0,0,0,0.1v0.1c0,0,0,0.1,0,0.1c0,0,0,0.1,0,0.1v0.1c0,0,0,0,0,0.1c0,0,0,0,0,0.1v0.2c0,0,0,0,0,0.1
		c0,0,0,0,0,0.1v0.1c0,0,0,0.1,0,0.1c0,0,0,0.1,0,0.1v0.1c0,0,0,0,0,0.1c0,0,0,0,0,0.1v0.2c0,0,0,0,0,0.1c0,0,0,0,0,0.1v0.1
		c0,1.7,1.4,3,3,3c1.7,0,3-1.4,3-3v-0.1c0,0,0,0,0-0.1c0,0,0,0,0-0.1v-0.2c0,0,0,0,0-0.1s0,0,0-0.1v-0.1c0,0,0-0.1,0-0.1
		c0,0,0-0.1,0-0.1v-0.1c0,0,0,0,0-0.1c0,0,0,0,0-0.1v-0.2c0,0,0,0,0-0.1s0,0,0-0.1v-0.1c0,0,0-0.1,0-0.1c0,0,0-0.1,0-0.1v-0.1
		c0,0,0,0,0-0.1c0,0,0,0,0-0.1v-0.2c0,0,0,0,0-0.1c0,0,0,0,0-0.1v-0.1c0,0,0-0.1,0-0.1c0,0,0-0.1,0-0.1v-0.1c0,0,0,0,0-0.1
		c0,0,0,0,0-0.1v-0.2c0,0,0,0,0-0.1s0,0,0-0.1v-0.1c0,0,0-0.1,0-0.1c0,0,0-0.1,0-0.1v-0.1c0,0,0,0,0-0.1c0,0,0,0,0-0.1v-0.2
		c0,0,0,0,0-0.1c0,0,0,0,0-0.1v-0.1c0,0,0-0.1,0-0.1c0,0,0-0.1,0-0.1v-0.1c0,0,0,0,0-0.1c0,0,0,0,0-0.1v-0.2c0,0,0,0,0-0.1
		c0,0,0,0,0-0.1v-0.1c0,0,0-0.1,0-0.1c0,0,0-0.1,0-0.1v-0.1c0,0,0,0,0-0.1c0,0,0,0,0-0.1v-0.2c0,0,0,0,0-0.1c0,0,0,0,0-0.1v-0.1
		c0,0,0-0.1,0-0.1c0,0,0-0.1,0-0.1v-0.1c0,0,0,0,0-0.1c0,0,0,0,0-0.1v-0.2c0,0,0,0,0-0.1c0,0,0,0,0-0.1v-0.1c0,0,0-0.1,0-0.1
		c0,0,0-0.1,0-0.1V394c0,0,0,0,0-0.1c0,0,0,0,0-0.1v-0.2c0,0,0,0,0-0.1c0,0,0,0,0-0.1v-0.1c0,0,0-0.1,0-0.1c0,0,0-0.1,0-0.1V393
		c0,0,0,0,0-0.1c0,0,0,0,0-0.1v-0.2c0,0,0,0,0-0.1c0,0,0,0,0-0.1v-0.1c0,0,0-0.1,0-0.1C-161.5,392.2-161.5,392.2-161.5,392.1
		L-161.5,392.1z"/>
	<path d="M-248.5,401.8c0,1.7,1.4,3,3,3c1.7,0,3-1.4,3-3v-0.1c0,0,0,0,0-0.1c0,0,0,0,0-0.1v-0.2c0,0,0,0,0-0.1c0,0,0,0,0-0.1v-0.1
		c0,0,0-0.1,0-0.1c0,0,0-0.1,0-0.1v-0.1c0,0,0,0,0-0.1c0,0,0,0,0-0.1v-0.2c0,0,0,0,0-0.1c0,0,0,0,0-0.1v-0.1c0,0,0-0.1,0-0.1
		c0,0,0-0.1,0-0.1v-0.1c0,0,0,0,0-0.1c0,0,0,0,0-0.1v-0.2c0,0,0,0,0-0.1c0,0,0,0,0-0.1v-0.1c0,0,0-0.1,0-0.1c0,0,0-0.1,0-0.1v-0.1
		c0,0,0,0,0-0.1c0,0,0,0,0-0.1v-0.2c0,0,0,0,0-0.1c0,0,0,0,0-0.1v-0.1c0,0,0-0.1,0-0.1c0,0,0-0.1,0-0.1v-0.1c0,0,0,0,0-0.1
		c0,0,0,0,0-0.1v-0.2c0,0,0,0,0-0.1c0,0,0,0,0-0.1v-0.1c0,0,0-0.1,0-0.1c0,0,0-0.1,0-0.1v-0.1c0,0,0,0,0-0.1c0,0,0,0,0-0.1v-0.2
		c0,0,0,0,0-0.1c0,0,0,0,0-0.1v-0.1c0,0,0-0.1,0-0.1c0,0,0-0.1,0-0.1v-0.1c0,0,0,0,0-0.1c0,0,0,0,0-0.1v-0.2c0,0,0,0,0-0.1
		c0,0,0,0,0-0.1v-0.1c0,0,0-0.1,0-0.1c0,0,0-0.1,0-0.1v-0.1c0,0,0,0,0-0.1c0,0,0,0,0-0.1v-0.2c0,0,0,0,0-0.1c0,0,0,0,0-0.1v-0.1
		c0,0,0-0.1,0-0.1c0,0,0-0.1,0-0.1V394c0,0,0,0,0-0.1c0,0,0,0,0-0.1v-0.2c0,0,0,0,0-0.1c0,0,0,0,0-0.1v-0.1c0,0,0-0.1,0-0.1
		c0,0,0-0.1,0-0.1V393c0,0,0,0,0-0.1c0,0,0,0,0-0.1v-0.2c0,0,0,0,0-0.1c0,0,0,0,0-0.1v-0.1c0,0,0-0.1,0-0.1c0,0,0-0.1,0-0.1v-0.1
		c0-1.7-1.4-3-3-3c-1.7,0-3,1.4-3,3v0.1c0,0,0,0.1,0,0.1c0,0,0,0.1,0,0.1v0.1c0,0,0,0,0,0.1c0,0,0,0,0,0.1v0.2c0,0,0,0,0,0.1
		c0,0,0,0,0,0.1v0.1c0,0,0,0.1,0,0.1c0,0,0,0.1,0,0.1v0.1c0,0,0,0,0,0.1c0,0,0,0,0,0.1v0.2c0,0,0,0,0,0.1c0,0,0,0,0,0.1v0.1
		c0,0,0,0.1,0,0.1c0,0,0,0.1,0,0.1v0.1c0,0,0,0,0,0.1c0,0,0,0,0,0.1v0.2c0,0,0,0,0,0.1s0,0,0,0.1v0.1c0,0,0,0.1,0,0.1
		c0,0,0,0.1,0,0.1v0.1c0,0,0,0,0,0.1c0,0,0,0,0,0.1v0.2c0,0,0,0,0,0.1c0,0,0,0,0,0.1v0.1c0,0,0,0.1,0,0.1c0,0,0,0.1,0,0.1v0.1
		c0,0,0,0,0,0.1c0,0,0,0,0,0.1v0.2c0,0,0,0,0,0.1c0,0,0,0,0,0.1v0.1c0,0,0,0.1,0,0.1c0,0,0,0.1,0,0.1v0.1c0,0,0,0,0,0.1
		c0,0,0,0,0,0.1v0.2c0,0,0,0,0,0.1c0,0,0,0,0,0.1v0.1c0,0,0,0.1,0,0.1c0,0,0,0.1,0,0.1v0.1c0,0,0,0,0,0.1s0,0,0,0.1v0.2
		c0,0,0,0,0,0.1c0,0,0,0,0,0.1v0.1c0,0,0,0.1,0,0.1c0,0,0,0.1,0,0.1v0.1c0,0,0,0,0,0.1c0,0,0,0,0,0.1v0.2c0,0,0,0,0,0.1
		c0,0,0,0,0,0.1v0.1c0,0,0,0.1,0,0.1c0,0,0,0.1,0,0.1v0.1c0,0,0,0,0,0.1s0,0,0,0.1v0.2c0,0,0,0,0,0.1c0,0,0,0,0,0.1v0.1
		c0,0,0,0.1,0,0.1c0,0,0,0.1,0,0.1v0.1c0,0,0,0,0,0.1s0,0,0,0.1v0.2c0,0,0,0,0,0.1C-248.5,401.7-248.5,401.7-248.5,401.8
		L-248.5,401.8z"/>
	<path d="M-220.2,432.1L-220.2,432.1c-0.1,0-0.1,0-0.1-0.1c0,0,0,0,0,0l-0.2-0.1c0,0,0,0-0.1,0c0,0,0,0-0.1,0l-0.1-0.1
		c0,0-0.1,0-0.1-0.1c0,0-0.1,0-0.1-0.1l-0.1-0.1c0,0,0,0,0,0c0,0,0,0-0.1,0l-0.2-0.1c0,0,0,0,0,0c0,0,0,0-0.1,0l-0.1-0.1
		c0,0-0.1,0-0.1-0.1c0,0-0.1,0-0.1-0.1l-0.1-0.1c0,0,0,0,0,0c0,0,0,0-0.1,0l-0.2-0.1c0,0,0,0,0,0c0,0,0,0-0.1,0l-0.1-0.1
		c0,0-0.1,0-0.1-0.1c0,0-0.1,0-0.1-0.1l-0.1-0.1c0,0,0,0,0,0c0,0,0,0-0.1,0l-0.2-0.1c0,0,0,0-0.1,0c0,0,0,0-0.1,0l-0.1-0.1
		c0,0-0.1,0-0.1-0.1c0,0-0.1,0-0.1-0.1l-0.1-0.1c0,0,0,0-0.1,0c0,0,0,0,0,0l-0.2-0.1c0,0,0,0-0.1,0c0,0,0,0-0.1,0l-0.1-0.1
		c0,0-0.1,0-0.1-0.1c0,0-0.1,0-0.1-0.1l-0.1-0.1c0,0,0,0-0.1,0c0,0,0,0-0.1,0l-0.2-0.1c0,0,0,0-0.1,0c0,0,0,0,0,0l-0.1-0.1
		c0,0-0.1,0-0.1-0.1c0,0-0.1,0-0.1-0.1l-0.1-0.1c0,0,0,0-0.1,0c0,0,0,0,0,0l-0.2-0.1c0,0,0,0-0.1,0c0,0,0,0,0,0l-0.1-0.1
		c0,0-0.1,0-0.1-0.1c0,0-0.1,0-0.1-0.1l-0.1-0.1c0,0,0,0-0.1,0c0,0,0,0,0,0l-0.2-0.1c0,0,0,0-0.1,0c0,0,0,0,0,0l-0.1-0.1
		c0,0-0.1,0-0.1-0.1c0,0-0.1,0-0.1-0.1l-0.1-0.1c0,0,0,0-0.1,0c0,0,0,0-0.1,0l-0.2-0.1c0,0,0,0,0,0c0,0,0,0-0.1,0l-0.1-0.1
		c0,0-0.1,0-0.1-0.1c0,0-0.1,0-0.1-0.1l-0.1,0c-1.5-0.8-3.3-0.2-4.1,1.2c-0.8,1.5-0.3,3.3,1.2,4.1l0.1,0c0,0,0.1,0,0.1,0
		c0,0,0.1,0,0.1,0.1l0.1,0.1c0,0,0,0,0,0c0,0,0,0,0.1,0l0.2,0.1c0,0,0,0,0,0c0,0,0,0,0.1,0l0.1,0.1c0,0,0.1,0,0.1,0.1
		c0,0,0.1,0,0.1,0.1l0.1,0.1c0,0,0,0,0.1,0c0,0,0,0,0,0l0.2,0.1c0,0,0,0,0.1,0c0,0,0,0,0,0l0.1,0.1c0,0,0.1,0,0.1,0.1
		c0,0,0.1,0,0.1,0.1l0.1,0.1c0,0,0,0,0.1,0c0,0,0,0,0,0l0.2,0.1c0,0,0,0,0.1,0c0,0,0,0,0,0l0.1,0.1c0,0,0.1,0,0.1,0.1
		c0,0,0.1,0,0.1,0.1l0.1,0.1c0,0,0,0,0.1,0c0,0,0,0,0,0l0.2,0.1c0,0,0,0,0.1,0c0,0,0,0,0,0l0.1,0.1c0,0,0.1,0,0.1,0.1
		c0,0,0.1,0,0.1,0.1l0.1,0.1c0,0,0,0,0.1,0c0,0,0,0,0,0l0.2,0.1c0,0,0,0,0.1,0c0,0,0,0,0,0l0.1,0.1c0,0,0.1,0,0.1,0.1
		c0,0,0.1,0,0.1,0.1l0.1,0.1c0,0,0,0,0.1,0c0,0,0,0,0,0l0.2,0.1c0,0,0,0,0.1,0c0,0,0,0,0.1,0l0.1,0.1c0,0,0.1,0,0.1,0.1
		c0,0,0.1,0,0.1,0.1l0.1,0.1c0,0,0,0,0,0c0,0,0,0,0.1,0l0.2,0.1c0,0,0,0,0,0c0,0,0,0,0.1,0l0.1,0.1c0,0,0.1,0,0.1,0.1
		c0,0,0.1,0,0.1,0.1l0.1,0.1c0,0,0,0,0,0c0,0,0,0,0.1,0l0.2,0.1c0,0,0,0,0,0c0,0,0,0,0.1,0l0.1,0.1c0,0,0.1,0,0.1,0.1
		c0,0,0.1,0,0.1,0.1l0.1,0.1c0,0,0,0,0,0c0,0,0,0,0,0l0.2,0.1c0,0,0,0,0.1,0c0,0,0,0,0.1,0l0.1,0c0.5,0.2,1,0.4,1.4,0.4
		c1.1,0,2.1-0.6,2.7-1.6C-218.2,434.8-218.7,432.9-220.2,432.1z"/>
	<path d="M-235.5,423.1L-235.5,423.1c-0.1,0-0.1,0-0.1-0.1c0,0,0,0,0,0l-0.2-0.1c0,0,0,0-0.1,0c0,0,0,0-0.1,0l-0.1-0.1
		c0,0-0.1,0-0.1-0.1c0,0-0.1,0-0.1-0.1l-0.1-0.1c0,0,0,0-0.1,0s0,0-0.1,0l-0.2-0.1c0,0,0,0-0.1,0c0,0,0,0,0,0l-0.1-0.1
		c0,0-0.1,0-0.1-0.1c0,0-0.1,0-0.1-0.1l-0.1-0.1c0,0,0,0-0.1,0c0,0,0,0-0.1,0l-0.2-0.1c0,0,0,0-0.1,0c0,0,0,0-0.1,0l-0.1-0.1
		c0,0-0.1,0-0.1-0.1c0,0-0.1,0-0.1-0.1l-0.1-0.1c0,0,0,0,0,0c0,0,0,0-0.1,0l-0.2-0.1c0,0,0,0-0.1,0c0,0,0,0-0.1,0l-0.1-0.1
		c0,0-0.1,0-0.1,0c0,0-0.1,0-0.1-0.1l-0.1-0.1c0,0,0,0-0.1,0c0,0,0,0-0.1,0l-0.2-0.1c0,0,0,0-0.1,0c0,0,0,0-0.1,0l-0.1-0.1
		c0,0-0.1,0-0.1-0.1c0,0-0.1,0-0.1-0.1l-0.1-0.1c0,0,0,0-0.1,0c0,0,0,0,0,0l-0.2-0.1c0,0,0,0-0.1,0c0,0,0,0-0.1,0l-0.1-0.1
		c0,0-0.1,0-0.1-0.1c0,0-0.1,0-0.1-0.1l-0.1-0.1c0,0,0,0-0.1,0c0,0,0,0-0.1,0l-0.2-0.1c0,0,0,0-0.1,0c0,0,0,0,0,0l-0.1-0.1
		c0,0-0.1,0-0.1-0.1c0,0-0.1,0-0.1-0.1l-0.1-0.1c0,0,0,0-0.1,0c0,0,0,0-0.1,0l-0.2-0.1c0,0,0,0,0,0c0,0,0,0-0.1,0l-0.1-0.1
		c0,0-0.1,0-0.1-0.1c0,0-0.1,0-0.1-0.1l-0.1-0.1c0,0,0,0,0,0v-0.1c0,0,0,0,0-0.1c0,0,0,0,0-0.1v-0.2c0,0,0,0,0-0.1c0,0,0,0,0-0.1
		v-0.1c0,0,0-0.1,0-0.1c0,0,0-0.1,0-0.1v-0.1c0,0,0,0,0-0.1c0,0,0,0,0-0.1v-0.2c0,0,0,0,0-0.1c0,0,0,0,0-0.1v-0.1c0,0,0-0.1,0-0.1
		c0,0,0-0.1,0-0.1v-0.1c0,0,0,0,0-0.1c0,0,0,0,0-0.1v-0.2c0,0,0,0,0-0.1c0,0,0,0,0-0.1v-0.1c0,0,0-0.1,0-0.1c0,0,0-0.1,0-0.1v-0.1
		c0,0,0,0,0-0.1c0,0,0,0,0-0.1v-0.2c0,0,0,0,0-0.1c0,0,0,0,0-0.1v-0.1c0,0,0-0.1,0-0.1c0,0,0-0.1,0-0.1v-0.1c0,0,0,0,0-0.1
		c0,0,0,0,0-0.1v-0.2c0,0,0,0,0-0.1c0,0,0,0,0-0.1V415c0,0,0-0.1,0-0.1c0,0,0-0.1,0-0.1v-0.1c0,0,0,0,0-0.1c0,0,0,0,0-0.1v-0.2
		c0,0,0,0,0-0.1c0,0,0,0,0-0.1V414c0,0,0-0.1,0-0.1c0,0,0-0.1,0-0.1v-0.1c0,0,0,0,0-0.1c0,0,0,0,0-0.1v-0.2c0,0,0,0,0-0.1
		c0,0,0,0,0-0.1V413c0,0,0-0.1,0-0.1c0,0,0-0.1,0-0.1v-0.1c0,0,0,0,0-0.1c0,0,0,0,0-0.1v-0.2c0,0,0,0,0-0.1c0,0,0,0,0-0.1v-0.1
		c0,0,0-0.1,0-0.1c0,0,0-0.1,0-0.1v-0.1c0-1.7-1.4-3-3-3c-1.7,0-3,1.4-3,3v0.1c0,0,0,0.1,0,0.1c0,0,0,0.1,0,0.1v0.1c0,0,0,0,0,0.1
		c0,0,0,0,0,0.1v0.2c0,0,0,0,0,0.1s0,0,0,0.1v0.1c0,0,0,0.1,0,0.1c0,0,0,0.1,0,0.1v0.1c0,0,0,0,0,0.1c0,0,0,0,0,0.1v0.2
		c0,0,0,0,0,0.1c0,0,0,0,0,0.1v0.1c0,0,0,0.1,0,0.1c0,0,0,0.1,0,0.1v0.1c0,0,0,0,0,0.1c0,0,0,0,0,0.1v0.2c0,0,0,0,0,0.1
		c0,0,0,0,0,0.1v0.1c0,0,0,0.1,0,0.1c0,0,0,0.1,0,0.1v0.1c0,0,0,0,0,0.1s0,0,0,0.1v0.2c0,0,0,0,0,0.1c0,0,0,0,0,0.1v0.1
		c0,0,0,0.1,0,0.1c0,0,0,0.1,0,0.1v0.1c0,0,0,0,0,0.1c0,0,0,0,0,0.1v0.2c0,0,0,0,0,0.1c0,0,0,0,0,0.1v0.1c0,0,0,0.1,0,0.1
		c0,0,0,0.1,0,0.1v0.1c0,0,0,0,0,0.1c0,0,0,0,0,0.1v0.2c0,0,0,0,0,0.1s0,0,0,0.1v0.1c0,0,0,0.1,0,0.1c0,0,0,0.1,0,0.1v0.1
		c0,0,0,0,0,0.1s0,0,0,0.1v0.2c0,0,0,0,0,0.1c0,0,0,0,0,0.1v0.1c0,0,0,0.1,0,0.1c0,0,0,0.1,0,0.1v0.1c0,0,0,0,0,0.1c0,0,0,0,0,0.1
		v0.2c0,0,0,0,0,0.1c0,0,0,0,0,0.1v0.1c0,0,0,0.1,0,0.1c0,0,0,0.1,0,0.1v0.1c0,0,0,0,0,0.1c0,0,0,0,0,0.1v0.2c0,0,0,0,0,0.1
		c0,0,0,0,0,0.1v0.1c0,0,0,0.1,0,0.1c0,0,0,0.1,0,0.1v0.1c0,0,0,0,0,0.1c0,0,0,0,0,0.1v0.2c0,0,0,0,0,0.1c0,0,0,0,0,0.1v0.1
		c0,0,0,0,0,0c0,0.1,0,0.1,0,0.2c0,0,0,0.1,0,0.1c0,0.1,0,0.1,0,0.2c0,0,0,0.1,0,0.1c0,0,0,0.1,0,0.1c0,0.1,0,0.1,0,0.2
		c0,0,0,0.1,0,0.1c0,0.1,0,0.1,0.1,0.2c0,0,0,0.1,0,0.1c0,0.1,0.1,0.1,0.1,0.2c0,0,0.1,0.1,0.1,0.1c0,0,0,0.1,0.1,0.1
		c0,0.1,0.1,0.1,0.1,0.2c0,0,0,0,0.1,0.1c0,0.1,0.1,0.1,0.1,0.2c0,0,0,0,0.1,0.1c0,0,0.1,0.1,0.1,0.1c0,0,0.1,0.1,0.1,0.1
		c0,0,0.1,0.1,0.1,0.1c0,0,0.1,0.1,0.1,0.1c0,0,0.1,0,0.1,0.1c0.1,0,0.1,0.1,0.2,0.1c0,0,0,0,0,0l0.1,0c0,0,0.1,0,0.1,0c0,0,0,0,0,0
		c0,0,0.1,0,0.1,0.1l0.1,0.1c0,0,0,0,0.1,0c0,0,0,0,0,0l0.2,0.1c0,0,0,0,0,0c0,0,0,0,0.1,0l0.1,0.1c0,0,0.1,0,0.1,0.1
		c0,0,0.1,0,0.1,0.1l0.1,0.1c0,0,0,0,0.1,0c0,0,0,0,0.1,0l0.2,0.1c0,0,0,0,0.1,0c0,0,0,0,0.1,0l0.1,0.1c0,0,0.1,0,0.1,0
		c0,0,0.1,0,0.1,0.1l0.1,0.1c0,0,0,0,0.1,0c0,0,0,0,0.1,0l0.2,0.1c0,0,0,0,0,0c0,0,0,0,0.1,0l0.1,0.1c0,0,0.1,0,0.1,0.1
		c0,0,0.1,0,0.1,0.1l0.1,0.1c0,0,0,0,0.1,0c0,0,0,0,0,0l0.2,0.1c0,0,0,0,0.1,0c0,0,0,0,0.1,0l0.1,0.1c0,0,0.1,0,0.1,0.1
		c0,0,0.1,0,0.1,0.1l0.1,0.1c0,0,0,0,0.1,0c0,0,0,0,0.1,0l0.2,0.1c0,0,0,0,0.1,0c0,0,0,0,0,0l0.1,0.1c0,0,0.1,0,0.1,0.1
		c0,0,0.1,0,0.1,0.1l0.1,0.1c0,0,0,0,0.1,0c0,0,0,0,0.1,0l0.2,0.1c0,0,0,0,0,0c0,0,0,0,0.1,0l0.1,0.1c0,0,0.1,0,0.1,0.1
		c0,0,0.1,0,0.1,0.1l0.1,0.1c0,0,0,0,0,0c0,0,0,0,0.1,0l0.2,0.1c0,0,0,0,0.1,0c0,0,0,0,0.1,0l0.1,0.1c0,0,0.1,0,0.1,0
		c0,0,0.1,0,0.1,0.1l0.1,0.1c0,0,0,0,0.1,0c0,0,0,0,0.1,0l0.2,0.1c0,0,0,0,0.1,0c0,0,0,0,0.1,0l0.1,0.1c0,0,0.1,0,0.1,0.1
		c0,0,0.1,0,0.1,0.1l0.1,0.1c0,0,0,0,0.1,0c0,0,0,0,0,0l0.2,0.1c0,0,0,0,0.1,0c0,0,0,0,0.1,0l0.1,0.1c0,0,0.1,0,0.1,0.1
		c0,0,0.1,0,0.1,0.1l0.1,0.1c0,0,0,0,0.1,0c0,0,0,0,0.1,0l0.2,0.1c0,0,0,0,0.1,0c0,0,0,0,0.1,0l0.1,0c0.4,0.2,0.9,0.3,1.4,0.3
		c1.1,0,2.2-0.6,2.7-1.7C-233.4,425.7-234,423.9-235.5,423.1z"/>
	<path d="M-195.3,350.5L-195.3,350.5c-0.1,0-0.1,0-0.1,0c0,0,0,0-0.1,0l-0.2-0.1c0,0,0,0,0,0c0,0,0,0-0.1,0l-0.1,0c0,0,0,0,0,0
		l-0.1,0c0,0,0,0,0,0c0,0-0.1,0-0.1,0l-0.1,0c0,0,0,0-0.1,0c0,0,0,0-0.1,0l-0.1,0c0,0,0,0,0,0l-0.1,0c0,0,0,0,0,0c0,0,0,0,0,0
		c0,0,0,0-0.1,0l-0.1,0l0,0c0,0,0,0,0,0l-0.1,0c0,0,0,0-0.1,0c0,0,0,0-0.1,0l-0.1,0l0,0c0,0,0,0-0.1,0c0,0,0,0-0.1,0l-0.1,0
		c0,0,0,0,0,0l-0.1,0c0,0,0,0,0,0c0,0,0,0-0.1,0l-0.2-0.1c0,0,0,0-0.1,0c0,0,0,0-0.1,0l-0.1,0c0,0,0,0-0.1,0c0,0,0,0-0.1,0l-0.1,0
		c0,0,0,0,0,0l-0.1,0l0,0c0,0,0,0,0,0l0,0l0,0c0,0,0,0-0.1,0c0,0,0,0-0.1,0l-0.1,0c0,0,0,0,0,0l-0.1,0c0,0,0,0-0.1,0c0,0,0,0-0.1,0
		l-0.1,0c0,0,0,0,0,0c0,0,0,0,0,0c0,0,0,0-0.1,0l-0.1,0c0,0,0,0,0,0l-0.1,0c0,0,0,0,0,0c0,0,0,0,0,0c0,0,0,0-0.1,0l-0.1,0
		c0,0,0,0,0,0l-0.1,0c0,0,0,0-0.1,0c0,0,0,0,0,0l0,0h0l0,0l-0.1,0c0,0,0,0,0,0c0,0,0,0,0,0c0,0,0,0-0.1,0l-0.1,0c0,0,0,0,0,0l-0.1,0
		c0,0,0,0-0.1,0c0,0,0,0,0,0c0,0,0,0,0,0l-0.1,0c0,0,0,0,0,0l-0.1,0c0,0,0,0-0.1,0c0,0,0,0,0,0l-0.1,0c0,0,0,0,0,0c0,0,0,0,0,0
		c0,0,0,0-0.1,0l-0.1,0c0,0,0,0,0,0l-0.1,0c0,0,0,0-0.1,0c0,0,0,0-0.1,0l-0.2-0.1c0,0,0,0-0.1,0c0,0,0,0-0.1,0l-0.1,0c0,0,0,0,0,0
		c0,0,0,0-0.1,0l-0.1,0c0,0,0,0,0,0l-0.1,0c0,0,0,0-0.1,0c0,0,0,0-0.1,0l0,0l0,0l0,0l-0.2-0.1c0,0,0,0-0.1,0c0,0,0,0-0.1,0l-0.1,0
		c0,0,0,0,0,0c0,0,0,0,0,0c0,0,0,0-0.1,0l-0.1,0c0,0,0,0,0,0l-0.1,0c0,0,0,0-0.1,0c0,0,0,0-0.1,0l-0.2-0.1c0,0,0,0-0.1,0
		c0,0,0,0-0.1,0l-0.1,0c0,0-0.1,0-0.1,0c0,0,0,0,0,0l-0.1,0c0,0,0,0,0,0l-0.1,0c0,0,0,0,0,0c0,0,0,0,0,0c0,0,0,0,0,0c0,0,0,0-0.1,0
		l-0.2-0.1c0,0,0,0-0.1,0c0,0,0,0-0.1,0l-0.1,0c-0.5-0.2-1-0.3-1.5-0.2c0,0-0.1,0-0.1,0c-0.1,0-0.1,0-0.2,0c0,0-0.1,0-0.1,0
		c-0.1,0-0.1,0-0.2,0c0,0-0.1,0-0.1,0.1c0,0-0.1,0-0.1,0.1c0,0,0,0,0,0l-0.1,0c0,0,0,0-0.1,0c0,0,0,0-0.1,0l-0.2,0.1c0,0,0,0,0,0
		c0,0,0,0-0.1,0l-0.1,0c0,0-0.1,0-0.1,0c0,0-0.1,0-0.1,0l-0.1,0c0,0,0,0-0.1,0c0,0,0,0-0.1,0l-0.2,0.1c0,0,0,0-0.1,0c0,0,0,0-0.1,0
		l-0.1,0c0,0-0.1,0-0.1,0.1c0,0-0.1,0-0.1,0l-0.1,0c0,0,0,0-0.1,0c0,0,0,0-0.1,0l-0.2,0.1c0,0,0,0-0.1,0c0,0,0,0,0,0l-0.1,0
		c0,0-0.1,0-0.1,0.1c0,0-0.1,0-0.1,0l-0.1,0c0,0,0,0,0,0c0,0,0,0-0.1,0l-0.2,0.1c0,0,0,0-0.1,0c0,0,0,0,0,0l-0.1,0
		c0,0-0.1,0-0.1,0.1c0,0-0.1,0-0.1,0l-0.1,0c0,0,0,0,0,0c0,0,0,0-0.1,0l-0.2,0.1c0,0,0,0-0.1,0c0,0,0,0-0.1,0l-0.1,0
		c0,0-0.1,0-0.1,0c0,0-0.1,0-0.1,0l-0.1,0c0,0,0,0-0.1,0c0,0,0,0-0.1,0l-0.2,0.1c0,0,0,0-0.1,0c0,0,0,0-0.1,0l-0.1,0.1
		c0,0-0.1,0-0.1,0c0,0-0.1,0-0.1,0l-0.1,0c0,0,0,0-0.1,0s0,0-0.1,0l-0.2,0.1c0,0,0,0-0.1,0c0,0,0,0-0.1,0l-0.1,0c0,0-0.1,0-0.1,0
		c0,0-0.1,0-0.1,0l-0.1,0c0,0,0,0-0.1,0c0,0,0,0-0.1,0l-0.2,0.1c0,0,0,0-0.1,0c0,0,0,0-0.1,0l-0.1,0c0,0-0.1,0-0.1,0
		c0,0-0.1,0-0.1,0l-0.1,0c0,0,0,0-0.1,0c0,0,0,0-0.1,0l-0.2,0.1c0,0,0,0,0,0c0,0,0,0-0.1,0l-0.1,0c0,0-0.1,0-0.1,0.1
		c0,0-0.1,0-0.1,0l-0.1,0c-1.5,0.7-2.2,2.5-1.5,4c0.5,1.1,1.6,1.8,2.8,1.8c0.4,0,0.8-0.1,1.2-0.3l0.1,0c0,0,0.1,0,0.1-0.1
		c0,0,0.1,0,0.1,0l0.1,0c0,0,0,0,0,0c0,0,0,0,0.1,0l0.2-0.1c0,0,0,0,0.1,0c0,0,0,0,0.1,0l0.1,0c0,0,0.1,0,0.1-0.1c0,0,0.1,0,0.1,0
		l0.1,0c0,0,0,0,0.1,0s0,0,0.1,0l0.2-0.1c0,0,0,0,0.1,0c0,0,0,0,0.1,0l0.1,0c0,0,0.1,0,0.1-0.1c0,0,0.1,0,0.1,0l0.1,0c0,0,0,0,0.1,0
		c0,0,0,0,0.1,0l0.2-0.1c0,0,0,0,0.1,0c0,0,0,0,0.1,0l0.1,0c0,0,0.1,0,0.1,0c0,0,0.1,0,0.1,0l0.1,0c0,0,0,0,0.1,0c0,0,0,0,0.1,0
		l0.2-0.1c0,0,0,0,0.1,0c0,0,0,0,0.1,0l0.1,0c0,0,0.1,0,0.1,0c0,0,0.1,0,0.1,0l0.1,0c0,0,0,0,0.1,0c0,0,0,0,0.1,0l0.2-0.1
		c0,0,0,0,0,0c0,0,0,0,0.1,0l0.1,0c0,0,0.1,0,0.1,0c0,0,0.1,0,0.1,0l0.1,0c0,0,0,0,0.1,0c0,0,0,0,0,0l0.2-0.1c0,0,0,0,0,0
		c0,0,0,0,0.1,0l0.1,0c0,0,0.1,0,0.1,0c0,0,0.1,0,0.1,0l0.1,0c0,0,0,0,0.1,0c0,0,0,0,0.1,0l0.2-0.1c0,0,0,0,0.1,0c0,0,0,0,0.1,0
		l0.1,0c0,0,0.1,0,0.1,0c0,0,0.1,0,0.1,0l0.1,0c0,0,0,0,0.1,0c0,0,0,0,0.1,0l0,0l0,0c0,0,0,0,0.1,0c0,0,0,0,0.1,0l0.2,0.1
		c0,0,0,0,0,0c0,0,0,0,0.1,0l0.1,0c0,0,0,0,0,0c0,0,0,0,0,0c0,0,0,0,0.1,0l0.1,0c0,0,0,0,0,0l0.1,0c0,0,0,0,0,0c0,0,0,0,0,0
		c0,0,0,0,0,0c0,0,0,0,0,0l0.1,0l0,0c0,0,0,0,0,0l0.1,0c0,0,0,0,0,0c0,0,0,0,0.1,0l0.1,0c0,0,0,0,0.1,0c0,0,0,0,0.1,0l0.1,0
		c0,0,0,0,0,0l0.1,0c0,0,0,0,0,0c0,0,0,0,0,0c0,0,0,0,0,0l0.1,0c0,0,0,0,0,0l0.1,0c0,0,0,0,0.1,0c0,0,0,0,0,0l0.1,0c0,0,0,0,0,0
		c0,0,0,0,0,0c0,0,0,0,0.1,0l0.1,0c0,0,0,0,0,0l0.1,0c0,0,0,0,0.1,0c0,0,0,0,0,0c0,0,0,0,0,0l0.1,0c0,0,0,0,0,0l0.1,0c0,0,0,0,0.1,0
		c0,0,0,0,0.1,0l0.1,0l0,0c0,0,0,0,0.1,0c0,0,0,0,0.1,0l0.1,0c0,0,0,0,0,0l0.1,0c0,0,0,0,0,0c0,0,0,0,0.1,0l0.2,0.1c0,0,0,0,0,0
		c0,0,0,0,0.1,0l0.1,0c0,0,0,0,0,0c0,0,0,0,0,0c0,0,0,0,0.1,0l0.1,0c0,0,0,0,0,0l0.1,0l0,0c0,0,0,0,0,0l0,0h0c0,0,0,0,0.1,0
		c0,0,0,0,0.1,0l0.1,0c0,0,0,0,0,0l0.1,0c0,0,0,0,0.1,0c0,0,0,0,0.1,0l0.1,0c0,0,0,0,0.1,0c0,0,0,0,0.1,0l0.1,0c0,0,0,0,0,0l0.1,0
		c0,0,0,0,0.1,0c0,0,0,0,0.1,0l0.1,0c0,0,0,0,0,0l0.1,0c0,0,0,0,0.1,0c0,0,0,0,0,0l0,0c0,0,0,0,0,0l0,0l0.1,0c0,0,0,0,0,0
		c0,0,0,0,0,0c0,0,0,0,0.1,0l0.1,0l0.1,0c0,0,0,0,0.1,0c0,0,0,0,0,0c0,0,0,0,0,0l0.1,0c0,0,0,0,0,0l0.1,0c0,0,0,0,0.1,0
		c0,0,0,0,0.1,0c0,0,0,0,0,0l0.1,0c0,0,0,0,0,0c0,0,0.1,0,0.1,0c0,0,0,0,0,0l0.1,0c0,0,0,0,0,0l0.1,0c0,0,0,0,0,0c0,0,0,0,0,0
		c0,0,0,0,0.1,0l0.1,0c0,0,0,0,0,0l0.1,0c0,0,0,0,0.1,0c0,0,0,0,0,0l0.1,0c0.4,0.2,0.8,0.2,1.2,0.2c1.2,0,2.3-0.7,2.8-1.9
		c0.2-0.4,0.2-0.8,0.2-1.2C-193.4,352.2-194.1,351-195.3,350.5z"/>
	<path d="M-222.2,355.4L-222.2,355.4c-0.1,0-0.1,0.1-0.1,0.1c0,0,0,0-0.1,0l-0.2,0.1c0,0,0,0,0,0c0,0,0,0-0.1,0l-0.1,0.1
		c0,0-0.1,0-0.1,0.1c0,0-0.1,0-0.1,0.1l-0.1,0.1c0,0,0,0-0.1,0c0,0,0,0-0.1,0l-0.2,0.1c0,0,0,0-0.1,0c0,0,0,0-0.1,0l-0.1,0.1
		c0,0-0.1,0-0.1,0.1c0,0-0.1,0-0.1,0.1l-0.1,0.1c0,0,0,0,0,0c0,0,0,0-0.1,0l-0.2,0.1c0,0,0,0-0.1,0c0,0,0,0-0.1,0l-0.1,0.1
		c0,0-0.1,0-0.1,0.1c0,0-0.1,0-0.1,0.1l-0.1,0.1c0,0,0,0-0.1,0c0,0,0,0-0.1,0l-0.2,0.1c0,0,0,0-0.1,0c0,0,0,0-0.1,0l-0.1,0.1
		c0,0-0.1,0-0.1,0.1c0,0-0.1,0-0.1,0.1l-0.1,0.1c0,0,0,0-0.1,0c0,0,0,0-0.1,0l-0.2,0.1c0,0,0,0-0.1,0c0,0,0,0-0.1,0l-0.1,0.1
		c0,0-0.1,0-0.1,0.1c0,0-0.1,0-0.1,0.1l-0.1,0.1c0,0,0,0-0.1,0c0,0,0,0-0.1,0l-0.2,0.1c0,0,0,0-0.1,0c0,0,0,0-0.1,0l-0.1,0.1
		c0,0-0.1,0-0.1,0.1c0,0-0.1,0-0.1,0.1l-0.1,0.1c0,0,0,0-0.1,0c0,0,0,0-0.1,0l-0.2,0.1c0,0,0,0,0,0c0,0,0,0-0.1,0l-0.1,0.1
		c0,0-0.1,0-0.1,0.1c0,0-0.1,0-0.1,0.1l-0.1,0.1c0,0,0,0-0.1,0c0,0,0,0-0.1,0l-0.2,0.1c0,0,0,0-0.1,0c0,0,0,0,0,0l-0.1,0.1
		c0,0-0.1,0-0.1,0.1c0,0-0.1,0-0.1,0.1l-0.1,0.1c0,0,0,0,0,0c0,0,0,0-0.1,0l-0.2,0.1c0,0,0,0,0,0c0,0,0,0-0.1,0l-0.1,0.1
		c0,0-0.1,0-0.1,0.1c0,0-0.1,0-0.1,0.1l-0.1,0c-1.5,0.8-2,2.7-1.2,4.1c0.6,1,1.6,1.6,2.7,1.6c0.5,0,1-0.1,1.5-0.4l0.1,0
		c0,0,0.1,0,0.1-0.1c0,0,0.1,0,0.1,0l0.1-0.1c0,0,0,0,0,0c0,0,0,0,0.1,0l0.2-0.1c0,0,0,0,0.1,0c0,0,0,0,0.1,0l0.1-0.1
		c0,0,0.1,0,0.1-0.1c0,0,0.1,0,0.1-0.1l0.1-0.1c0,0,0,0,0.1,0c0,0,0,0,0.1,0l0.2-0.1c0,0,0,0,0.1,0c0,0,0,0,0.1,0l0.1-0.1
		c0,0,0.1,0,0.1-0.1c0,0,0.1,0,0.1-0.1l0.1-0.1c0,0,0,0,0,0c0,0,0,0,0.1,0l0.2-0.1c0,0,0,0,0.1,0c0,0,0,0,0.1,0l0.1-0.1
		c0,0,0.1,0,0.1-0.1c0,0,0.1,0,0.1-0.1l0.1-0.1c0,0,0,0,0,0c0,0,0,0,0.1,0l0.2-0.1c0,0,0,0,0.1,0c0,0,0,0,0.1,0l0.1-0.1
		c0,0,0.1,0,0.1-0.1c0,0,0.1,0,0.1-0.1l0.1-0.1c0,0,0,0,0.1,0c0,0,0,0,0.1,0l0.2-0.1c0,0,0,0,0.1,0c0,0,0,0,0.1,0l0.1-0.1
		c0,0,0.1,0,0.1-0.1c0,0,0.1,0,0.1-0.1l0.1-0.1c0,0,0,0,0,0c0,0,0,0,0.1,0l0.2-0.1c0,0,0,0,0.1,0c0,0,0,0,0.1,0l0.1-0.1
		c0,0,0.1,0,0.1-0.1c0,0,0.1,0,0.1-0.1l0.1-0.1c0,0,0,0,0.1,0c0,0,0,0,0.1,0l0.2-0.1c0,0,0,0,0.1,0c0,0,0,0,0.1,0l0.1-0.1
		c0,0,0.1,0,0.1-0.1c0,0,0.1,0,0.1-0.1l0.1-0.1c0,0,0,0,0.1,0c0,0,0,0,0.1,0l0.2-0.1c0,0,0,0,0.1,0c0,0,0,0,0.1,0l0.1-0.1
		c0,0,0.1,0,0.1-0.1c0,0,0.1,0,0.1-0.1l0.1-0.1c0,0,0,0,0,0c0,0,0,0,0.1,0l0.2-0.1c0,0,0,0,0.1,0c0,0,0,0,0.1,0l0.1,0
		c1.5-0.8,2-2.7,1.2-4.1C-218.9,355.1-220.7,354.6-222.2,355.4z"/>
	<path d="M-179.6,359.3L-179.6,359.3c-0.1,0-0.1-0.1-0.1-0.1c0,0-0.1,0-0.1-0.1l-0.1-0.1c0,0,0,0-0.1,0c0,0,0,0,0,0l-0.2-0.1
		c0,0,0,0-0.1,0c0,0,0,0-0.1,0l-0.1-0.1c0,0-0.1,0-0.1-0.1c0,0-0.1,0-0.1-0.1l-0.1-0.1c0,0,0,0,0,0c0,0,0,0-0.1,0l-0.2-0.1
		c0,0,0,0,0,0c0,0,0,0-0.1,0l-0.1-0.1c0,0-0.1,0-0.1-0.1c0,0-0.1,0-0.1-0.1l-0.1-0.1c0,0,0,0,0,0c0,0,0,0-0.1,0l-0.2-0.1
		c0,0,0,0-0.1,0c0,0,0,0-0.1,0l-0.1-0.1c0,0-0.1,0-0.1-0.1c0,0-0.1,0-0.1-0.1l-0.1-0.1c0,0,0,0-0.1,0c0,0,0,0,0,0l-0.2-0.1
		c0,0,0,0-0.1,0c0,0,0,0-0.1,0l-0.1-0.1c0,0-0.1,0-0.1-0.1c0,0-0.1,0-0.1-0.1l-0.1-0.1c0,0,0,0-0.1,0c0,0,0,0,0,0l-0.2-0.1
		c0,0,0,0-0.1,0c0,0,0,0,0,0l-0.1-0.1c0,0-0.1,0-0.1-0.1c0,0-0.1,0-0.1-0.1l-0.1-0.1c0,0,0,0-0.1,0c0,0,0,0,0,0l-0.2-0.1
		c0,0,0,0,0,0c0,0,0,0-0.1,0l-0.1-0.1c0,0-0.1,0-0.1-0.1c0,0-0.1,0-0.1-0.1l-0.1-0.1c0,0,0,0-0.1,0c0,0,0,0-0.1,0l-0.2-0.1
		c0,0,0,0,0,0c0,0,0,0-0.1,0l-0.1-0.1c0,0-0.1,0-0.1-0.1c0,0-0.1,0-0.1-0.1l-0.1-0.1c0,0,0,0,0,0c0,0,0,0-0.1,0l-0.2-0.1
		c0,0,0,0-0.1,0c0,0,0,0,0,0l-0.1-0.1c0,0-0.1,0-0.1-0.1c0,0-0.1,0-0.1-0.1l-0.1-0.1c0,0,0,0-0.1,0c0,0,0,0,0,0l-0.2-0.1
		c0,0,0,0-0.1,0c0,0,0,0-0.1,0l-0.1,0c-1.5-0.8-3.3-0.2-4.1,1.2c-0.8,1.5-0.2,3.3,1.2,4.1l0.1,0c0,0,0,0,0,0c0,0,0,0,0.1,0l0.2,0.1
		c0,0,0,0,0.1,0c0,0,0,0,0.1,0l0.1,0.1c0,0,0.1,0,0.1,0.1c0,0,0.1,0,0.1,0.1l0.1,0.1c0,0,0,0,0.1,0c0,0,0,0,0.1,0l0.2,0.1
		c0,0,0,0,0,0c0,0,0,0,0.1,0l0.1,0.1c0,0,0.1,0,0.1,0.1c0,0,0.1,0,0.1,0.1l0.1,0.1c0,0,0,0,0,0c0,0,0,0,0.1,0l0.2,0.1c0,0,0,0,0.1,0
		c0,0,0,0,0.1,0l0.1,0.1c0,0,0.1,0,0.1,0.1c0,0,0.1,0,0.1,0.1l0.1,0.1c0,0,0,0,0,0c0,0,0,0,0.1,0l0.2,0.1c0,0,0,0,0.1,0
		c0,0,0,0,0.1,0l0.1,0.1c0,0,0.1,0,0.1,0.1c0,0,0.1,0,0.1,0.1l0.1,0.1c0,0,0,0,0.1,0c0,0,0,0,0,0l0.2,0.1c0,0,0,0,0.1,0c0,0,0,0,0,0
		l0.1,0.1c0,0,0.1,0,0.1,0.1c0,0,0.1,0,0.1,0.1l0.1,0.1c0,0,0,0,0.1,0c0,0,0,0,0,0l0.2,0.1c0,0,0,0,0.1,0c0,0,0,0,0.1,0l0.1,0.1
		c0,0,0.1,0,0.1,0.1c0,0,0.1,0,0.1,0.1l0.1,0.1c0,0,0,0,0.1,0c0,0,0,0,0,0l0.2,0.1c0,0,0,0,0,0c0,0,0,0,0.1,0l0.1,0.1
		c0,0,0.1,0,0.1,0.1c0,0,0.1,0,0.1,0.1l0.1,0.1c0,0,0,0,0,0c0,0,0,0,0.1,0l0.2,0.1c0,0,0,0,0,0c0,0,0,0,0.1,0l0.1,0.1
		c0,0,0.1,0,0.1,0.1c0,0,0.1,0,0.1,0.1l0.1,0.1c0,0,0,0,0,0c0,0,0,0,0.1,0l0.2,0.1c0,0,0,0,0.1,0c0,0,0,0,0,0l0.1,0.1
		c0,0,0.1,0,0.1,0c0,0,0.1,0,0.1,0.1l0.1,0c0.5,0.2,1,0.4,1.4,0.4c1.1,0,2.1-0.6,2.7-1.6C-177.6,361.9-178.1,360.1-179.6,359.3z"/>
	<path d="M-174.5,369.7L-174.5,369.7c0.1,0,0.1,0,0.1,0.1c0,0,0,0,0.1,0l0.2,0.1c0,0,0,0,0.1,0c0,0,0,0,0,0l0.1,0.1
		c0,0,0.1,0,0.1,0.1c0,0,0.1,0,0.1,0.1l0.1,0.1c0,0,0,0,0.1,0c0,0,0,0,0,0l0.2,0.1c0,0,0,0,0.1,0c0,0,0,0,0,0l0.1,0.1
		c0,0,0.1,0,0.1,0.1c0,0,0.1,0,0.1,0.1l0.1,0.1c0,0,0,0,0.1,0c0,0,0,0,0.1,0l0.2,0.1c0,0,0,0,0.1,0c0,0,0,0,0.1,0l0.1,0.1
		c0,0,0.1,0,0.1,0.1c0,0,0.1,0,0.1,0.1l0.1,0.1c0,0,0,0,0.1,0c0,0,0,0,0.1,0l0.2,0.1c0,0,0,0,0.1,0c0,0,0,0,0.1,0l0.1,0.1
		c0,0,0.1,0,0.1,0.1c0,0,0.1,0,0.1,0.1l0.1,0.1c0,0,0,0,0,0c0,0,0,0,0,0c0,0,0,0,0,0l-0.1,0.1c0,0-0.1,0-0.1,0.1c0,0-0.1,0-0.1,0.1
		l-0.1,0.1c0,0,0,0-0.1,0c0,0,0,0-0.1,0l-0.2,0.1c0,0,0,0,0,0c0,0,0,0-0.1,0l-0.1,0.1c0,0-0.1,0-0.1,0.1c0,0-0.1,0-0.1,0.1l-0.1,0.1
		c0,0,0,0,0,0c0,0,0,0-0.1,0l-0.2,0.1c0,0,0,0-0.1,0c0,0,0,0-0.1,0l-0.1,0.1c0,0-0.1,0-0.1,0.1c0,0-0.1,0-0.1,0.1l-0.1,0.1
		c0,0,0,0,0,0c0,0,0,0-0.1,0l-0.2,0.1c0,0,0,0,0,0c0,0,0,0-0.1,0l-0.1,0c-1.5,0.8-2,2.7-1.2,4.1c0.6,1,1.6,1.6,2.7,1.6
		c0.5,0,1-0.1,1.5-0.4l0.1,0c0,0,0,0,0.1,0c0,0,0,0,0.1,0l0.2-0.1c0,0,0,0,0,0c0,0,0,0,0.1,0l0.1-0.1c0,0,0.1,0,0.1-0.1
		c0,0,0.1,0,0.1-0.1l0.1-0.1c0,0,0,0,0.1,0c0,0,0,0,0.1,0l0.2-0.1c0,0,0,0,0.1,0c0,0,0,0,0.1,0l0.1-0.1c0,0,0.1,0,0.1-0.1
		c0,0,0.1,0,0.1-0.1l0.1-0.1c0,0,0,0,0,0c0,0,0,0,0.1,0l0.2-0.1c0,0,0,0,0.1,0c0,0,0,0,0.1,0l0.1-0.1c0,0,0.1,0,0.1-0.1
		c0,0,0.1,0,0.1-0.1l0.1-0.1c0,0,0,0,0.1,0c0,0,0,0,0,0l0.2-0.1c0,0,0,0,0.1,0c0,0,0,0,0.1,0l0.1-0.1c0,0,0,0,0,0v0.1c0,0,0,0,0,0.1
		c0,0,0,0,0,0.1v0.2c0,0,0,0,0,0.1c0,0,0,0,0,0.1v0.1c0,0,0,0.1,0,0.1c0,0,0,0.1,0,0.1v0.1c0,0,0,0,0,0.1c0,0,0,0,0,0.1v0.2
		c0,0,0,0,0,0.1c0,0,0,0,0,0.1v0.1c0,0,0,0.1,0,0.1c0,0,0,0.1,0,0.1v0.1c0,0,0,0,0,0.1c0,0,0,0,0,0.1v0.2c0,0,0,0,0,0.1
		c0,0,0,0,0,0.1v0.1c0,0,0,0.1,0,0.1c0,0,0,0.1,0,0.1v0.1c0,0,0,0,0,0.1c0,0,0,0,0,0.1v0.2c0,0,0,0,0,0.1c0,0,0,0,0,0.1v0.1
		c0,0,0,0.1,0,0.1c0,0,0,0.1,0,0.1v0.1c0,0,0,0,0,0.1c0,0,0,0,0,0.1v0.2c0,0,0,0,0,0.1c0,0,0,0,0,0.1v0.1c0,1.7,1.4,3,3,3
		c1.7,0,3-1.4,3-3V381c0,0,0,0,0-0.1c0,0,0,0,0-0.1v-0.2c0,0,0,0,0-0.1c0,0,0,0,0-0.1v-0.1c0,0,0-0.1,0-0.1c0,0,0-0.1,0-0.1V380
		c0,0,0,0,0-0.1c0,0,0,0,0-0.1v-0.2c0,0,0,0,0-0.1c0,0,0,0,0-0.1v-0.1c0,0,0-0.1,0-0.1c0,0,0-0.1,0-0.1v-0.1c0,0,0,0,0-0.1
		c0,0,0,0,0-0.1v-0.2c0,0,0,0,0-0.1c0,0,0,0,0-0.1v-0.1c0,0,0-0.1,0-0.1c0,0,0-0.1,0-0.1v-0.1c0,0,0,0,0-0.1s0,0,0-0.1v-0.2
		c0,0,0,0,0-0.1c0,0,0,0,0-0.1v-0.1c0,0,0-0.1,0-0.1c0,0,0-0.1,0-0.1v-0.1c0,0,0,0,0-0.1c0,0,0,0,0-0.1v-0.2c0,0,0,0,0-0.1
		c0,0,0,0,0-0.1v-0.1c0,0,0-0.1,0-0.1c0,0,0-0.1,0-0.1v-0.1c0,0,0,0,0-0.1c0,0,0,0,0-0.1v-0.2c0,0,0,0,0-0.1c0,0,0,0,0-0.1v-0.1
		c0,0,0-0.1,0-0.1c0,0,0-0.1,0-0.1v-0.1c0,0,0,0,0-0.1c0,0,0,0,0-0.1v-0.2c0,0,0,0,0-0.1c0,0,0,0,0-0.1v-0.1c0,0,0-0.1,0-0.1
		c0,0,0-0.1,0-0.1v-0.1c0,0,0,0,0-0.1c0,0,0,0,0-0.1v-0.2c0,0,0,0,0-0.1c0,0,0,0,0-0.1v-0.1c0,0,0-0.1,0-0.1c0,0,0-0.1,0-0.1v-0.1
		c0,0,0,0,0-0.1c0,0,0,0,0-0.1v-0.2c0,0,0,0,0-0.1c0,0,0,0,0-0.1v-0.1c0,0,0-0.1,0-0.1c0,0,0-0.1,0-0.1v-0.1c0,0,0,0,0-0.1
		c0,0,0,0,0-0.1v-0.2c0,0,0,0,0-0.1c0,0,0,0,0-0.1v-0.1c0,0,0-0.1,0-0.1c0,0,0-0.1,0-0.1v-0.1c0,0,0,0,0,0c0,0,0,0,0,0
		c0,0,0-0.1,0-0.1c0,0,0-0.1,0-0.1c0,0,0,0,0,0c0,0,0,0,0,0c0,0,0-0.1,0-0.1c0,0,0-0.1,0-0.1c0,0,0,0,0,0c0,0,0,0,0,0
		c0,0,0-0.1,0-0.1c0,0,0,0,0,0c0-0.1,0-0.1,0-0.2c0,0,0,0,0,0c0,0,0,0,0,0c0,0,0,0,0-0.1c0-0.1,0-0.1-0.1-0.2c0,0,0,0,0,0
		c0,0,0,0,0-0.1c0-0.1-0.1-0.1-0.1-0.2c0,0,0,0,0,0l0,0c0,0,0,0,0,0c0,0,0-0.1,0-0.1c0,0-0.1-0.1-0.1-0.1c0,0,0,0,0,0
		c0,0,0-0.1-0.1-0.1c0,0,0,0,0,0c0,0,0,0-0.1-0.1c0,0,0,0,0,0c0,0-0.1-0.1-0.1-0.1c0,0,0,0,0,0c0,0,0,0-0.1-0.1c0,0,0,0,0,0
		c0,0-0.1-0.1-0.1-0.1c0,0,0,0-0.1-0.1c0,0,0,0,0,0c0,0-0.1-0.1-0.1-0.1c0,0-0.1,0-0.1-0.1c0,0,0,0,0,0c0,0-0.1,0-0.1-0.1
		c0,0-0.1,0-0.1-0.1c0,0,0,0,0,0l0,0c0,0-0.1,0-0.1-0.1c0,0-0.1,0-0.1-0.1l-0.1-0.1c0,0,0,0-0.1,0s0,0-0.1,0l-0.2-0.1c0,0,0,0-0.1,0
		c0,0,0,0-0.1,0l-0.1-0.1c0,0-0.1,0-0.1-0.1c0,0-0.1,0-0.1-0.1l-0.1-0.1c0,0,0,0-0.1,0c0,0,0,0,0,0l-0.2-0.1c0,0,0,0-0.1,0
		c0,0,0,0-0.1,0l-0.1-0.1c0,0-0.1,0-0.1-0.1c0,0-0.1,0-0.1-0.1l-0.1-0.1c0,0,0,0-0.1,0c0,0,0,0-0.1,0l-0.2-0.1c0,0,0,0-0.1,0
		c0,0,0,0,0,0l-0.1-0.1c0,0-0.1,0-0.1-0.1c0,0-0.1,0-0.1-0.1l-0.1-0.1c0,0,0,0-0.1,0c0,0,0,0-0.1,0l-0.2-0.1c0,0,0,0-0.1,0
		c0,0,0,0,0,0l-0.1-0.1c0,0-0.1,0-0.1-0.1c0,0-0.1,0-0.1-0.1l-0.1-0.1c0,0,0,0-0.1,0c0,0,0,0-0.1,0l-0.2-0.1c0,0,0,0-0.1,0
		c0,0,0,0-0.1,0l-0.1-0.1c0,0-0.1,0-0.1-0.1c0,0-0.1,0-0.1-0.1l-0.1-0.1c0,0,0,0-0.1,0c0,0,0,0-0.1,0l-0.2-0.1c0,0,0,0,0,0
		c0,0,0,0-0.1,0l-0.1-0.1c0,0-0.1,0-0.1-0.1c0,0-0.1,0-0.1-0.1l-0.1-0.1c0,0,0,0-0.1,0c0,0,0,0-0.1,0l-0.2-0.1c0,0,0,0-0.1,0
		c0,0,0,0-0.1,0l-0.1-0.1c0,0-0.1,0-0.1-0.1c0,0-0.1,0-0.1-0.1l-0.1-0.1c0,0,0,0,0,0c0,0,0,0-0.1,0l-0.2-0.1c0,0,0,0,0,0
		c0,0,0,0-0.1,0l-0.1-0.1c0,0-0.1,0-0.1-0.1c0,0-0.1,0-0.1-0.1l-0.1-0.1c0,0,0,0-0.1,0c0,0,0,0,0,0l-0.2-0.1c0,0,0,0-0.1,0
		c0,0,0,0,0,0l-0.1-0.1c0,0-0.1,0-0.1-0.1c0,0-0.1,0-0.1-0.1l-0.1-0.1c0,0,0,0-0.1,0c0,0,0,0,0,0l-0.2-0.1c0,0,0,0-0.1,0
		c0,0,0,0-0.1,0l-0.1,0c-1.5-0.8-3.3-0.2-4.1,1.3C-176.6,367.1-176,369-174.5,369.7z"/>
</g>
</svg>
