<?xml version="1.0" encoding="utf-8"?>
<!-- Generator: Adobe Illustrator 19.1.0, SVG Export Plug-In . SVG Version: 6.00 Build 0)  -->
<svg version="1.1" id="Layer_1" xmlns="http://www.w3.org/2000/svg" xmlns:xlink="http://www.w3.org/1999/xlink" x="0px" y="0px"
	 viewBox="-232.5 366 54.9 62" style="enable-background:new -232.5 366 54.9 62;" xml:space="preserve">
<g>
	<path d="M-183.5,366H-226c-3.5,0-6.5,2.8-6.5,6v39c0,0.3,0.1,0.7,0.2,0.9c-0.2,0.7-0.2,1.3-0.2,2.1c0,5,4,9,9,9h3
		c0.4,0,0.7-0.1,1-0.3v3.3c0,0.7,0.4,1.3,0.9,1.7c0.6,0.4,1.3,0.4,1.9,0.1l5.1-2.6l5.1,2.6c0.3,0.1,0.6,0.2,0.9,0.2
		c0.4,0,0.7-0.1,1.1-0.3c0.6-0.4,0.9-1,0.9-1.7v-3h20c3.3,0,6-2.7,6-6v-7v-7l0,0v-2v-29C-177.5,368.7-180.2,366-183.5,366z
		 M-181.5,372v29v2l0,0c0,1.1-0.9,2-2,2h-27h-10h-1v-35h38C-182.4,370-181.5,370.9-181.5,372z M-226,370h0.5v35c0,0.1,0,0.2,0,0.2
		c-1.1,0.2-2.1,0.7-3,1.3V372C-228.5,371-227.2,370-226,370z M-220.5,419h-3c-2.8,0-5-2.2-5-5s2.2-5,5-5h3h10h27
		c0.7,0,1.4-0.1,2-0.4v1.4c0,1.1-0.9,2-2,2h-22l0,0l0,0h-11.9l0,0l0,0h-3c-1.1,0-2,0.9-2,2s0.9,2,2,2h1v3.3
		C-219.8,419.1-220.1,419-220.5,419z M-207.5,422.8l-3.1-1.6c-0.6-0.3-1.2-0.3-1.8,0l-3.1,1.6V416h8L-207.5,422.8L-207.5,422.8z
		 M-183.5,419h-20v-3h20c0.7,0,1.4-0.1,2-0.4v1.4C-181.5,418.1-182.4,419-183.5,419z"/>
	<path d="M-213.5,389h24c1.1,0,2-0.9,2-2v-9c0-1.1-0.9-2-2-2h-24c-1.1,0-2,0.9-2,2v9C-215.5,388.1-214.6,389-213.5,389z M-211.5,380
		h20v5h-20V380z"/>
</g>
</svg>
