<?xml version="1.0" encoding="utf-8"?>
<!-- Generator: Adobe Illustrator 19.1.0, SVG Export Plug-In . SVG Version: 6.00 Build 0)  -->
<svg version="1.1" id="Layer_1" xmlns="http://www.w3.org/2000/svg" xmlns:xlink="http://www.w3.org/1999/xlink" x="0px" y="0px"
	 viewBox="-234.2 371.2 59 59.4" style="enable-background:new -234.2 371.2 59 59.4;" xml:space="preserve">
<g>
	<path d="M-182.2,371.2h-45c-3.9,0-7,3.1-7,7v31c0,3.9,3.1,7,7,7h3.6v11.4c0,1.2,0.7,2.3,1.9,2.8c0.4,0.2,0.8,0.2,1.1,0.2
		c0.8,0,1.6-0.3,2.1-0.9l13.5-13.5h22.8c3.9,0,7-3.1,7-7v-31C-175.2,374.4-178.3,371.2-182.2,371.2z M-181.2,409.2c0,0.5-0.4,1-1,1
		h-24c-0.8,0-1.6,0.3-2.1,0.9l-9.3,9.3v-7.2c0-1.7-1.3-3-3-3h-6.6c-0.6,0-1-0.5-1-1v-31c0-0.5,0.4-1,1-1h45c0.6,0,1,0.5,1,1V409.2z"
		/>
	<path d="M-212.5,393.9c0,2-1.6,3.7-3.7,3.7s-3.7-1.6-3.7-3.7c0-2,1.6-3.7,3.7-3.7S-212.5,391.9-212.5,393.9z"/>
	<path d="M-200.8,393.9c0,2-1.6,3.7-3.7,3.7c-2,0-3.7-1.6-3.7-3.7c0-2,1.6-3.7,3.7-3.7C-202.5,390.2-200.8,391.9-200.8,393.9z"/>
	<path d="M-189.5,393.9c0,2-1.6,3.7-3.7,3.7s-3.7-1.6-3.7-3.7c0-2,1.6-3.7,3.7-3.7S-189.5,391.9-189.5,393.9z"/>
</g>
</svg>
