<?xml version="1.0" encoding="utf-8"?>
<!-- Generator: Adobe Illustrator 19.1.0, SVG Export Plug-In . SVG Version: 6.00 Build 0)  -->
<svg version="1.1" id="Layer_1" xmlns="http://www.w3.org/2000/svg" xmlns:xlink="http://www.w3.org/1999/xlink" x="0px" y="0px"
	 viewBox="-251 364.4 73 64.1" style="enable-background:new -251 364.4 73 64.1;" xml:space="preserve">
<style type="text/css">
	.st0{stroke:#000000;stroke-width:2;stroke-miterlimit:10;}
</style>
<g>
	<path class="st0" d="M-199.9,416.7l-12.6-7c4.7-3.7,6-10.9,6-15v-8.4c0-5.6-7.4-11.8-14.9-11.8s-15.1,6.2-15.1,11.8v8.4
		c0,3.7,1.6,11.2,6.3,14.9l-12.9,7c0,0-3.4,1.5-3.4,3.4v5.1c0,1.9,1.5,3.4,3.4,3.4h43.3c1.9,0,3.4-1.5,3.4-3.4V420
		C-196.5,418.1-199.9,416.7-199.9,416.7z M-200.5,424.5h-42v-3.6c0.3-0.2,0.7-0.5,1-0.6c0.1,0,0.2-0.1,0.3-0.1l12.9-7
		c1.2-0.6,2-1.8,2.1-3.2c0.1-1.3-0.4-2.6-1.5-3.5c-3.4-2.7-4.8-8.6-4.8-11.8v-8.4c0-2.9,5.4-7.8,11.1-7.8c5.8,0,10.9,4.9,10.9,7.8
		v8.4c0,3.1-1,9.1-4.4,11.8c-1.1,0.8-1.6,2.1-1.5,3.5c0.1,1.3,0.9,2.5,2.1,3.2l12.6,7c0.1,0.1,0.3,0.1,0.4,0.2
		c0.3,0.1,0.7,0.3,0.9,0.5v3.6H-200.5z M-185.9,406.7l-12.8-7c4.7-3.7,6.1-10.9,6.1-15v-8.4c0-5.6-7.6-11.9-15.1-11.9
		c-4.8,0-9.8,2.6-12.7,6c1.6,0.1,3.5,0.1,5,0.6c2.1-1.6,4.8-2.6,7.7-2.6c5.8,0,11.1,4.9,11.1,7.9v8.4c0,3.1-1.2,9.1-4.6,11.8
		c-1.1,0.8-1.6,2.1-1.5,3.5c0.1,1.3,0.9,2.5,2.1,3.2l12.8,7c0.1,0.1,0.3,0.1,0.4,0.2c0.3,0.1,0.7,0.3,0.9,0.5v3.6h-8.1
		c1.2,0.9,1.6,2.2,2.1,4h6.6c1.9,0,3.4-1.5,3.4-3.4v-5C-182.5,408.1-185.9,406.7-185.9,406.7z"/>
</g>
</svg>
