<?xml version="1.0" encoding="utf-8"?>
<!-- Generator: Adobe Illustrator 19.1.0, SVG Export Plug-In . SVG Version: 6.00 Build 0)  -->
<svg version="1.1"
	 id="Layer_1" xmlns:sodipodi="http://sodipodi.sourceforge.net/DTD/sodipodi-0.dtd" xmlns:cc="http://creativecommons.org/ns#" xmlns:rdf="http://www.w3.org/1999/02/22-rdf-syntax-ns#" xmlns:svg="http://www.w3.org/2000/svg" xmlns:inkscape="http://www.inkscape.org/namespaces/inkscape" xmlns:dc="http://purl.org/dc/elements/1.1/"
	 xmlns="http://www.w3.org/2000/svg" xmlns:xlink="http://www.w3.org/1999/xlink" x="0px" y="0px" viewBox="-227.7 372.8 46.5 59.7"
	 style="enable-background:new -227.7 372.8 46.5 59.7;" xml:space="preserve">
<style type="text/css">
	.st0{stroke:#000000;stroke-width:3;stroke-miterlimit:10;}
</style>
<g transform="translate(0,-952.36218)">
	<path class="st0" d="M-198.7,1326.7C-198.7,1326.7-198.8,1326.7-198.7,1326.7l-0.2,0h-23c-2.2,0-4,1.8-4,4v48.4c0,2.2,1.8,4,4,4
		h34.8c2.2,0,4-1.8,4-4v-37.4c0,0,0,0,0-0.1c0,0,0,0,0,0c0-0.1,0-0.1,0-0.2c0,0,0,0,0,0c0,0,0,0,0-0.1c0,0,0,0,0,0c0,0,0,0,0,0
		c0,0,0,0,0-0.1c0,0,0,0,0-0.1c0,0,0,0,0,0c0,0,0,0,0-0.1c0,0,0,0,0,0c0,0,0,0,0-0.1c0,0,0,0,0,0c0,0,0,0,0,0l-14.6-14
		c0,0,0,0-0.1-0.1c0,0-0.1,0-0.1-0.1c-0.1-0.1-0.2-0.1-0.4-0.2C-198.6,1326.7-198.6,1326.7-198.7,1326.7
		C-198.7,1326.7-198.7,1326.7-198.7,1326.7L-198.7,1326.7z M-221.9,1328.7h22.2v10c0,2.2,1.8,4,4,4h10.6v36.4c0,1.1-0.9,2-2,2h-34.8
		c-1.1,0-2-0.9-2-2v-48.4C-223.9,1329.6-223,1328.7-221.9,1328.7L-221.9,1328.7z M-197.7,1330l10.4,9.9l0.8,0.7h-9.1
		c-1.1,0-2-0.9-2-2C-197.7,1338.7-197.7,1330-197.7,1330z M-208.5,1351.3c0,0-0.1,0-0.1,0c-0.1,0-0.3,0.1-0.4,0.2l-6.1,4.6
		c-0.4,0.3-0.5,1-0.2,1.4c0.1,0.1,0.1,0.1,0.2,0.2l6.1,4.7c0.4,0.3,1.1,0.3,1.4-0.2c0.3-0.4,0.3-1.1-0.2-1.4c0,0,0,0,0,0l-5-3.9
		l5.1-3.8c0.5-0.3,0.6-0.9,0.3-1.4C-207.7,1351.5-208.1,1351.3-208.5,1351.3L-208.5,1351.3z M-201.7,1351.4
		c-0.5,0.1-0.9,0.6-0.8,1.2c0,0.3,0.2,0.5,0.4,0.6l5.1,3.8l-5.1,3.9c-0.4,0.3-0.5,1-0.2,1.4c0.3,0.4,1,0.5,1.4,0.2c0,0,0,0,0,0
		l6.1-4.7c0.4-0.3,0.5-1,0.2-1.4c-0.1-0.1-0.1-0.1-0.2-0.2l-6.1-4.6C-201.1,1351.4-201.3,1351.3-201.7,1351.4
		C-201.6,1351.4-201.7,1351.4-201.7,1351.4L-201.7,1351.4z"/>
</g>
</svg>
