<?xml version="1.0" encoding="utf-8"?>
<!-- Generator: Adobe Illustrator 19.1.0, SVG Export Plug-In . SVG Version: 6.00 Build 0)  -->
<svg version="1.1" id="Layer_1" xmlns="http://www.w3.org/2000/svg" xmlns:xlink="http://www.w3.org/1999/xlink" x="0px" y="0px"
	 viewBox="-243.1 358.9 76.3 76.3" style="enable-background:new -243.1 358.9 76.3 76.3;" xml:space="preserve">
<polygon points="-26.9,854.6 3.9,843.6 -26.9,827.4 -26.7,716.3 -86.4,716.2 -84.3,701.8 -84.3,701.8 -93.4,716.3 -181.2,716.1 
	-181.5,870.6 -109.3,870.7 -123.9,890.1 -70.1,870.8 -26.9,870.8 "/>
<path d="M-170.1,428.7h-66.6v-23.3l7.4-3c1.8,2.3,4.7,3.8,7.8,3.8c2.4,0,4.7-0.9,6.4-2.3l6.7,4.5c-0.3,1-0.5,2-0.5,3.1
	c0,5.5,4.5,10,10,10s10-4.5,10-10c0-2.4-0.9-4.7-2.3-6.4l10.2-15.2c1,0.3,2,0.5,3,0.5c5.5,0,10-4.5,10-10s-4.5-10-10-10
	s-10,4.5-10,10c0,2.4,0.9,4.7,2.3,6.4l-10.1,15.1c-1-0.3-2-0.5-3-0.5c-2.4,0-4.7,0.9-6.4,2.3l-6.8-4.5c0.3-1,0.5-2,0.5-3.1
	c0-5.5-4.5-10-10-10s-10,4.5-10,10c0,0.4,0,0.7,0.1,1.1l-5.3,2.2v-37.3c0-1.8-1.4-3.2-3.2-3.2s-3.2,1.4-3.2,3.2V432
	c0,1.8,1.4,3.2,3.2,3.2h69.9c1.8,0,3.2-1.4,3.2-3.2S-168.3,428.7-170.1,428.7z M-177.9,376c2.4,0,4.4,2,4.4,4.4s-2,4.4-4.4,4.4
	c-2.4,0-4.4-2-4.4-4.4S-180.4,376-177.9,376z M-198.9,407c2.4,0,4.4,2,4.4,4.4s-2,4.4-4.4,4.4c-2.4,0-4.4-2-4.4-4.4
	S-201.3,407-198.9,407z M-221.5,391.7c2.4,0,4.4,2,4.4,4.4c0,2.4-2,4.4-4.4,4.4c-2.4,0-4.4-2-4.4-4.4
	C-225.9,393.7-223.9,391.7-221.5,391.7z"/>
</svg>
