<?xml version="1.0" encoding="utf-8"?>
<!-- Generator: Adobe Illustrator 16.0.0, SVG Export Plug-In . SVG Version: 6.00 Build 0)  -->
<!DOCTYPE svg PUBLIC "-//W3C//DTD SVG 1.1//EN" "http://www.w3.org/Graphics/SVG/1.1/DTD/svg11.dtd">
<svg version="1.1" id="Layer_1" xmlns="http://www.w3.org/2000/svg" xmlns:xlink="http://www.w3.org/1999/xlink" x="0px" y="0px"
	 width="142px" height="61px" viewBox="0 0 142 61" enable-background="new 0 0 142 61" xml:space="preserve">
<g>
	<path fill="#0071BC" d="M33.125,59.49h-3.981c-0.536-0.023-1.001-0.227-1.396-0.609c-0.396-0.385-0.594-0.845-0.594-1.38v-1.538
		c-3.121,3.003-6.624,4.505-10.512,4.505c-4.657,0-8.51-1.698-11.561-5.099c-3.05-3.516-4.575-7.857-4.575-13.026
		c0-5.028,1.525-9.267,4.575-12.712c3.004-3.421,6.798-5.134,11.386-5.134c3.981,0,7.543,1.63,10.687,4.89V4.59V4.45
		c0-0.558,0.105-1.076,0.314-1.554c0.21-0.477,0.494-0.896,0.855-1.257c0.361-0.36,0.78-0.646,1.257-0.855
		c0.477-0.21,0.996-0.315,1.555-0.315c0.536,0,1.048,0.105,1.537,0.315c0.488,0.209,0.913,0.495,1.274,0.855
		c0.361,0.361,0.646,0.78,0.855,1.257c0.209,0.479,0.314,0.996,0.314,1.554v53.226c-0.047,0.512-0.262,0.942-0.646,1.291
		C34.085,59.316,33.637,59.49,33.125,59.49z M6.76,42.378c0,3.261,0.873,5.915,2.619,7.963c1.792,2.073,4.052,3.108,6.775,3.108
		c2.91,0,5.262-1.001,7.055-3.004c1.792-2.071,2.689-4.702,2.689-7.894c0-3.19-0.897-5.821-2.689-7.893
		c-1.793-2.026-4.122-3.038-6.985-3.038c-2.702,0-4.96,1.023-6.775,3.072C7.656,36.768,6.76,39.328,6.76,42.378z"/>
	<path fill="#0071BC" d="M69.485,55.614c0,0.559-0.105,1.077-0.314,1.555c-0.209,0.479-0.488,0.897-0.838,1.259
		c-0.35,0.36-0.769,0.646-1.258,0.854c-0.489,0.209-1.013,0.313-1.571,0.313c-1.095,0-2.014-0.373-2.759-1.117l-0.209-0.211
		c-0.047-0.069-0.105-0.146-0.175-0.228c-0.07-0.082-0.129-0.157-0.175-0.228l-9.884-12.642l-1.257,1.259v9.079
		c0,0.023-0.013,0.046-0.035,0.069v0.035c0,0.535-0.1,1.043-0.297,1.52c-0.198,0.477-0.471,0.891-0.821,1.239
		c-0.349,0.351-0.763,0.63-1.239,0.839c-0.479,0.21-0.996,0.312-1.555,0.312c-0.536,0-1.037-0.099-1.501-0.295
		c-0.466-0.197-0.874-0.465-1.222-0.803c-0.349-0.339-0.629-0.734-0.838-1.189c-0.21-0.452-0.327-0.948-0.35-1.483v-0.209V4.485
		l-0.036-0.069c0-0.559,0.105-1.077,0.314-1.554s0.489-0.891,0.838-1.24c0.35-0.349,0.762-0.629,1.24-0.838
		c0.478-0.21,0.996-0.314,1.554-0.314c0.535,0,1.042,0.104,1.519,0.314c0.478,0.209,0.891,0.489,1.24,0.838
		c0.35,0.349,0.629,0.763,0.838,1.24c0.21,0.477,0.314,0.996,0.314,1.554h0.035v32.061l10.024-9.954v0.035
		c0.675-0.722,1.536-1.083,2.583-1.083s1.921,0.349,2.62,1.048c0.698,0.699,1.048,1.571,1.048,2.619
		c0,0.466-0.088,0.914-0.262,1.345c-0.175,0.431-0.413,0.81-0.715,1.136l-0.07,0.068c0,0.023-0.012,0.035-0.035,0.035l-8.347,8.066
		l10.514,13.098C69.125,53.658,69.485,54.566,69.485,55.614z"/>
	<g>
		<path fill="#0071BC" d="M99.254,59.49c-0.536,0-0.99-0.167-1.361-0.506c-0.373-0.338-0.582-0.773-0.629-1.311v-1.747
			c-3.238,3.028-6.695,4.54-10.373,4.54c-4.703,0-8.58-1.697-11.631-5.099c-3.072-3.444-4.61-7.763-4.61-12.956
			c0-5.1,1.538-9.348,4.61-12.748c3.004-3.399,6.811-5.099,11.42-5.099c3.912,0,7.439,1.63,10.582,4.89
			c0-0.534,0.105-1.042,0.314-1.519s0.488-0.896,0.838-1.257c0.35-0.361,0.762-0.646,1.24-0.856
			c0.477-0.209,0.982-0.313,1.519-0.313c0.56,0,1.083,0.104,1.571,0.313c0.488,0.21,0.914,0.495,1.273,0.856
			c0.361,0.361,0.647,0.78,0.856,1.257c0.21,0.478,0.313,0.985,0.313,1.519c0,0.047-0.006,0.083-0.018,0.105
			c-0.011,0.023-0.018,0.047-0.018,0.069h0.035l-0.035,27.904c0,0.535-0.192,0.996-0.576,1.38c-0.385,0.384-0.855,0.576-1.415,0.576
			L99.254,59.49L99.254,59.49z M95.133,50.447c1.792-2.118,2.689-4.737,2.689-7.859c0-3.166-0.897-5.785-2.689-7.857
			c-1.793-2.026-4.134-3.039-7.02-3.039c-2.654,0-4.889,1.013-6.706,3.039c-1.815,2.096-2.726,4.658-2.726,7.685
			c0,3.213,0.885,5.843,2.654,7.892c1.816,2.096,4.062,3.145,6.741,3.145C90.964,53.449,93.316,52.448,95.133,50.447z"/>
	</g>
	<path fill="#0071BC" d="M141.589,55.51c0,0.047-0.006,0.1-0.017,0.157c-0.012,0.06-0.018,0.11-0.018,0.158
		c-0.022,0.534-0.146,1.028-0.367,1.483c-0.223,0.453-0.513,0.85-0.873,1.188c-0.361,0.338-0.774,0.605-1.239,0.803
		c-0.466,0.198-0.968,0.299-1.502,0.299c-0.56,0-1.077-0.105-1.556-0.314c-0.478-0.21-0.896-0.494-1.256-0.854
		c-0.361-0.361-0.646-0.781-0.855-1.26c-0.211-0.477-0.313-0.996-0.313-1.555c0-0.209,0.013-0.371,0.034-0.487v-14.53
		c0-3.375-0.466-5.705-1.396-6.986c-0.953-1.326-2.617-1.989-4.994-1.989c-2.653,0-4.518,0.873-5.588,2.619
		c-1.096,1.7-1.643,4.68-1.643,8.94v11.454c0.047,0.163,0.07,0.31,0.07,0.438s0,0.284,0,0.472c0,0.559-0.105,1.089-0.314,1.59
		s-0.488,0.938-0.838,1.311c-0.348,0.371-0.768,0.669-1.256,0.891c-0.49,0.221-1.014,0.331-1.572,0.331s-1.089-0.104-1.589-0.313
		c-0.501-0.211-0.938-0.5-1.312-0.873c-0.372-0.373-0.662-0.803-0.872-1.293c-0.21-0.488-0.314-1.014-0.314-1.571
		c0-0.257,0.013-0.441,0.035-0.558V29.491c0-0.559,0.104-1.083,0.313-1.571c0.211-0.488,0.5-0.92,0.873-1.292
		s0.805-0.664,1.293-0.874c0.49-0.209,1.014-0.314,1.572-0.314c0.465,0,0.913,0.082,1.346,0.245c0.431,0.163,0.82,0.383,1.17,0.664
		c0.35,0.279,0.646,0.617,0.889,1.013c0.246,0.396,0.415,0.815,0.507,1.256c2.771-2.747,5.902-4.12,9.396-4.12
		c3.981,0,7.078,1.257,9.289,3.771c1.935,2.095,2.899,5.565,2.899,10.407V55.51H141.589z"/>
</g>
</svg>
